<!-- Generator: Adobe Illustrator 21.1.0, SVG Export Plug-In  -->
<svg version="1.1"
	 xmlns="http://www.w3.org/2000/svg" xmlns:xlink="http://www.w3.org/1999/xlink" xmlns:a="http://ns.adobe.com/AdobeSVGViewerExtensions/3.0/"
	 x="0px" y="0px" width="68px" height="68px" viewBox="0 0 68 68" style="enable-background:new 0 0 68 68;" xml:space="preserve">
<style type="text/css">
	.st0{fill:#FDC378;}
	.st1{fill:#18ACE7;}
</style>
<defs>
</defs>
<g id="VsKVsq.tif_1_">
	<g>
		<path class="st0" d="M68,63.1c-0.4,0.6-0.4,1.2-0.8,1.8c-1.2,2-3.1,3.1-5.4,3.1c-8.6,0-17.1,0-25.7,0c-2.3,0-4.1-1.2-5.1-3.2
			c-1.4-2.7-2.7-5.4-4-8.1c-0.6-1.2-1.2-2.3-1.7-3.5c-1.1-2.6-0.5-4.9,1.4-6.8c1.6-1.6,3.1-3.2,4.7-4.7c0.3-0.3,0.5-0.6,0.5-1.1
			c0-6,0-12.1,0-18.1c0-3.3,2-5.7,5.2-6.2c3-0.5,6.1,1.7,6.6,4.9c0.2,1.5,0.1,3,0.1,4.4c0,2.1,0,4.2,0,6.2c0,0.5,0.1,0.6,0.6,0.5
			c3-0.7,5.8,0.8,7,3.7c0.1,0.3,0.2,0.5,0.7,0.4c3.3-0.9,6.2,0.5,7.5,3.7c0.1,0.3,0.2,0.4,0.6,0.3c3.6-1.2,7.2,1.3,7.8,4.6
			c0,0.1,0.1,0.1,0.1,0.1C68,51,68,57.1,68,63.1z"/>
		<path class="st1" d="M22.8,0C24,0.4,25,0.8,25.9,1.6c2,1.7,2.6,4.9,1.3,7.3c-1.4,2.5-4.2,3.8-6.8,3c-2.7-0.8-4.5-3.1-4.5-5.8
			c0-2.8,1.9-5.2,4.7-5.9c0.1,0,0.3,0,0.3-0.1C21.6,0,22.2,0,22.8,0z"/>
		<path class="st1" d="M6.9,0c1,0.4,2.1,0.7,3,1.5c1.9,1.7,2.6,4.5,1.6,6.9c-1,2.3-3.5,3.9-5.8,3.7c-2.7-0.2-4.9-2-5.5-4.6
			c-0.8-3.2,1.2-6.4,4.6-7.3c0.1,0,0.3,0,0.3-0.1C5.7,0,6.3,0,6.9,0z"/>
		<path class="st1" d="M38.7,0c1.1,0.3,2.2,0.7,3.2,1.6c1.9,1.7,2.5,4.5,1.6,6.9c-1,2.3-3.5,3.9-5.9,3.6c-2.8-0.3-4.9-2.1-5.5-4.7
			c-0.7-3.3,1.5-6.7,4.8-7.3C36.9,0.1,37,0,37.1,0C37.6,0,38.1,0,38.7,0z"/>
		<path class="st1" d="M27.9,38c0,3.3-2.7,6-5.9,5.9c-3.4,0-6.1-2.7-6.1-6c0-3.3,2.7-6,6.1-6C25.2,32,27.9,34.8,27.9,38z"/>
		<path class="st1" d="M27.9,22c0,3.2-2.7,6-5.8,6c-3.4,0-6.1-2.7-6.1-6c0-3.3,2.7-5.9,6.1-5.9C25.2,16.1,27.9,18.8,27.9,22z"/>
		<path class="st1" d="M12,22c0,3.3-2.7,6-5.9,6c-3.3,0-6-2.7-6-6c0-3.3,2.7-6,6-6C9.2,16.1,11.9,18.8,12,22z"/>
		<path class="st1" d="M12,38c0,3.3-2.7,6-6,6c-3.3,0-6-2.7-6-6c0-3.3,2.8-6,6-5.9C9.3,32,12,34.7,12,38z"/>
	</g>
</g>
</svg>