<!-- Generator: Adobe Illustrator 21.1.0, SVG Export Plug-In  -->
<svg version="1.1"
	 xmlns="http://www.w3.org/2000/svg" xmlns:xlink="http://www.w3.org/1999/xlink" xmlns:a="http://ns.adobe.com/AdobeSVGViewerExtensions/3.0/"
	 x="0px" y="0px" width="100px" height="100px" viewBox="0 0 100 100" style="enable-background:new 0 0 100 100;"
	 xml:space="preserve">
<style type="text/css">
	.st0{fill:#B4DD7F;}
	.st1{fill:#FCD770;}
	.st2{fill:#838F9B;}
	.st3{fill:#69D6F4;}
	.st4{fill:#E6E9ED;}
	.st5{fill:#1E1713;}
</style>
<defs>
</defs>
<g>
	<path class="st0" d="M98.4,1.6V21H79V1.6H98.4z"/>
	<path class="st0" d="M50,1.6V21H30.6V1.6H50z"/>
	<path class="st1" d="M85.5,8.1h6.5v6.5h-6.5V8.1z"/>
	<path class="st1" d="M37.1,8.1h6.5v6.5h-6.5V8.1z"/>
	<path class="st2" d="M41.3,29.7c1.5-1.5,3.4-2.3,5.5-2.3c2.1,0,4,0.8,5.5,2.3l18,18c1.5,1.5,2.3,3.4,2.3,5.5c0,2.1-0.8,4-2.3,5.5
		l-1,1l-29-29L41.3,29.7z"/>
	<path class="st2" d="M37.1,91.9l-4.2,4.2c-1.5,1.5-3.4,2.3-5.5,2.3s-4-0.8-5.5-2.3l-18-18c-1.5-1.5-2.3-3.4-2.3-5.5s0.8-4,2.3-5.5
		l4.2-4.2L37.1,91.9z"/>
	<path class="st3" d="M69.4,59.7L37.1,91.9l-29-29l32.3-32.3L69.4,59.7z"/>
	<path class="st4" d="M41.3,29.7L30.6,40.3V21H50V1.6h29V21h19.4v41.9H66.1l4.2-4.2c1.5-1.5,2.3-3.4,2.3-5.5c0-2.1-0.8-4-2.3-5.5
		l-18-18c-1.5-1.5-3.4-2.3-5.5-2.3C44.7,27.4,42.7,28.2,41.3,29.7z"/>
	<path class="st1" d="M59.7,59.7L37.1,82.3L17.7,62.9l22.6-22.6L59.7,59.7z"/>
	<path class="st0" d="M41.9,61.3c0,1.8-1.4,3.2-3.2,3.2c-1.8,0-3.2-1.4-3.2-3.2c0-1.8,1.4-3.2,3.2-3.2
		C40.5,58.1,41.9,59.5,41.9,61.3z"/>
	<g>
		<path class="st5" d="M11.8,78.6l2.3-2.3l9.7,9.7l-2.3,2.3L11.8,78.6z"/>
		<path class="st5" d="M47.9,64.6l4.9-4.9l-4.9-4.9L45.6,57l2.6,2.6l-2.6,2.6L47.9,64.6z"/>
		<path class="st5" d="M40.3,51.7l2.6,2.6l2.3-2.3l-4.9-4.9l-4.9,4.9l2.3,2.3L40.3,51.7z"/>
		<path class="st5" d="M29.5,67.8l2.3-2.3l-2.6-2.6l2.6-2.6L29.5,58l-4.9,4.9L29.5,67.8z"/>
		<path class="st5" d="M42,70.5l-2.3-2.3l-2.6,2.6l-2.6-2.6l-2.3,2.3l4.9,4.9L42,70.5z"/>
		<path class="st5" d="M37.1,84.5L62,59.7L40.3,38L15.5,62.9L37.1,84.5z M57.4,59.7L37.1,80L20,62.9l20.3-20.3L57.4,59.7z"/>
		<path class="st5" d="M38.7,66.1c2.7,0,4.8-2.2,4.8-4.8c0-2.7-2.2-4.8-4.8-4.8c-2.7,0-4.8,2.2-4.8,4.8C33.9,64,36,66.1,38.7,66.1z
			 M38.7,59.7c0.9,0,1.6,0.7,1.6,1.6c0,0.9-0.7,1.6-1.6,1.6c-0.9,0-1.6-0.7-1.6-1.6C37.1,60.4,37.8,59.7,38.7,59.7z"/>
		<path class="st5" d="M100,0H29v39.7L2.8,65.9C1,67.7,0,70.1,0,72.6c0,2.5,1,4.9,2.8,6.6l18,18c1.8,1.8,4.1,2.8,6.6,2.8
			s4.9-1,6.6-2.8l32.7-32.7H100V0z M96.8,19.4H80.6V3.2h16.1V19.4z M48.4,3.2v16.1H32.3V3.2H48.4z M69.3,57.4L42.6,30.7
			c1.1-1,2.6-1.6,4.2-1.6c1.6,0,3.2,0.6,4.4,1.8l18,18c1.2,1.2,1.8,2.7,1.8,4.4C71,54.8,70.4,56.2,69.3,57.4z M40.3,32.9l26.8,26.8
			l-30,30L10.3,62.9L40.3,32.9z M31.8,95c-2.3,2.3-6.4,2.3-8.7,0l-18-18c-1.1-1.1-1.8-2.7-1.8-4.4s0.7-3.2,1.8-4.4l3-3l26.8,26.8
			L31.8,95z M70,61.3l1.4-1.4c1.7-1.7,2.8-4.2,2.8-6.6c0-2.5-1-4.9-2.8-6.6l-18-18c-1.8-1.8-4.1-2.8-6.6-2.8s-4.9,1-6.6,2.8
			l-7.9,7.9V22.6h19.4V3.2h25.8v19.4h19.4v38.7H70z"/>
		<path class="st5" d="M45.2,6.5h-9.7v9.7h9.7V6.5z M41.9,12.9h-3.2V9.7h3.2V12.9z"/>
		<path class="st5" d="M93.5,16.1V6.5h-9.7v9.7H93.5z M87.1,9.7h3.2v3.2h-3.2V9.7z"/>
		<path class="st5" d="M67.7,14.5h-9.7V6.5h-3.2v11.3h12.9V14.5z"/>
		<path class="st5" d="M71,22.6h3.2V4.8H61.3v3.2H71V22.6z"/>
		<path class="st5" d="M83.9,32.3h3.2V29h6.5v-3.2h-9.7V32.3z"/>
		<path class="st5" d="M90.3,35.5h-6.5v3.2h9.7v-6.5h-3.2V35.5z"/>
		<path class="st5" d="M54.8,21h3.2v3.2h-3.2V21z"/>
		<path class="st5" d="M61.3,21h3.2v3.2h-3.2V21z"/>
		<path class="st5" d="M35.5,25.8h3.2V29h-3.2V25.8z"/>
		<path class="st5" d="M83.9,51.6h6.5v6.5h3.2v-9.7h-9.7V51.6z"/>
		<path class="st5" d="M80.6,48.4h-3.2v9.7h9.7v-3.2h-6.5V48.4z"/>
		<path class="st5" d="M90.3,41.9h3.2v3.2h-3.2V41.9z"/>
		<path class="st5" d="M83.9,41.9h3.2v3.2h-3.2V41.9z"/>
		<path class="st5" d="M77.4,41.9h3.2v3.2h-3.2V41.9z"/>
		<path class="st5" d="M71,29h6.5v9.7h3.2V25.8H71V29z"/>
		<path class="st5" d="M67.7,27.4h-3.2v8.1h9.7v-3.2h-6.5V27.4z"/>
	</g>
</g>
</svg>