<!-- Generator: Adobe Illustrator 21.1.0, SVG Export Plug-In  -->
<svg version="1.1"
	 xmlns="http://www.w3.org/2000/svg" xmlns:xlink="http://www.w3.org/1999/xlink" xmlns:a="http://ns.adobe.com/AdobeSVGViewerExtensions/3.0/"
	 x="0px" y="0px" width="100px" height="98.2px" viewBox="0 0 100 98.2" style="enable-background:new 0 0 100 98.2;"
	 xml:space="preserve">
<style type="text/css">
	.st0{fill:#FF669C;}
	.st1{fill:#B2B2B2;}
	.st2{fill:#FFFFFF;}
	.st3{fill:#4D5160;}
	.st4{fill:#71CDE2;}
	.st5{fill:#494D5B;}
	.st6{fill:#FCE06D;}
</style>
<defs>
</defs>
<g>
	<polygon class="st0" points="2.3,1.8 2.3,47 29.2,40.2 29.2,11 	"/>
	<g>
		<path d="M22.9,8.9c2.1,0.6,4.2,1.2,6.3,1.7c1,0.3,1.7-0.1,2-0.9c0.3-0.9-0.2-1.6-1.2-1.9c-0.1,0-0.2-0.1-0.4-0.1
			c-9-2.5-18.1-5-27.1-7.5C1.4-0.2,0.6,0,0,0.9c0,0.3,0,0.7,0,1C0.6,2.3,1.1,2.8,1.7,3C8.8,5,15.8,6.9,22.9,8.9z"/>
		<path d="M30.1,42c0.9-0.3,1.3-1,1-1.8c-0.2-0.8-0.9-1.2-1.8-1c-0.2,0-0.4,0.1-0.6,0.1c-9,2.5-18,5-27,7.5c-0.6,0.2-1.1,0.7-1.7,1
			c0,0.3,0,0.7,0,1c0.5,1,1.3,1.2,2.4,0.9c7.1-2,14.2-3.9,21.3-5.9C25.8,43.2,28,42.6,30.1,42z"/>
		<path d="M97,30.3c-0.6-2.5-1.2-5-1.9-7.5c-0.2-1-1-1.4-1.8-1.3c-0.9,0.2-1.3,0.9-1.1,2c0,0.1,0.1,0.2,0.1,0.4
			c1,3.9,2,7.9,2.9,11.8c0.4,1.8,0.9,3.6,1.3,5.4c-10.9,0-21.7,0-32.5,0c0.1-0.2,0.1-0.3,0.1-0.3c2.5-4.6,4.9-9.2,7.4-13.7
			c0.2-0.3,0.7-0.5,1.1-0.5c3.3,0,6.5,0,9.8,0c2.4,0,4.1-1.7,4.1-4c0-1.5,0-2.9,0-4.4c0-2.9-1.5-4.5-4.4-4.5c-1.1,0-2.1,0-3.3,0
			c0.7-1.2,1.2-2.3,1.8-3.3c0.1-0.2,0.4-0.4,0.6-0.4c2.5,0,5.1,0,7.6,0c0.1,0.4,0.2,0.7,0.3,1c0.5,1.9,0.9,3.7,1.4,5.6
			c0.2,0.9,1,1.4,1.8,1.2c0.8-0.2,1.2-0.9,1.1-1.8c0-0.2-0.1-0.4-0.1-0.6c-0.5-2.1-1.1-4.3-1.6-6.4c-0.5-1.8-0.6-2-2.5-2
			c-15.4,0-30.9,0-46.3,0c-0.3,0-0.5,0-0.8,0c-1,0.1-1.5,0.5-1.6,1.5c0,0.2,0,0.5-0.1,0.8c-1.7,0-3.4,0-5,0c-1.3,0-1.8,0.5-1.8,1.9
			c0,9.2,0,18.5,0,27.7c0,1.3,0.5,1.8,1.9,1.8c1.7,0,3.3,0,5.1,0c0,0.4,0,0.7,0,0.9c0,2.4,0.3,2.7,2.7,2.7c7.9,0,15.8,0,23.6,0
			c0.8,0,1,0.2,1.2,1c2.4,9,4.9,18.1,7.3,27.1c0.4,1.4,0.7,1.6,2.1,1.6c5,0,10.1,0,15.1,0c1.8,0,2.3-0.7,1.9-2.5
			c-1.5-5.6-3-11.2-4.6-16.8c-0.9-3.4-1.9-6.9-2.8-10.5c0.4,0,0.8,0,1.1,0c3.3,0,6.6,0,9.9,0c1.5,0,2.1-0.8,1.7-2.3
			C98.9,38.1,98,34.2,97,30.3z M40.4,37.6c-1.3,0-2.6,0-3.8,0c0-8.5,0-16.9,0-25.3c1.3,0,2.5,0,3.8,0C40.4,20.7,40.4,29.1,40.4,37.6
			z M82.1,16.6c1.3,0,1.5,0.3,1.5,1.5c0,1.3,0,2.7,0,4c0,1.1-0.3,1.4-1.4,1.4c-8.1,0-16.3,0-24.4,0c-1,0-1.3-0.4-1.4-1.4
			c0-1.4,0-2.8,0-4.2c0-1.1,0.3-1.4,1.5-1.4c4,0,8.1,0,12.1,0c0,0,0,0,0,0C74.1,16.6,78.1,16.6,82.1,16.6z M71.5,10.1
			c0.1-0.1,0.3-0.2,0.5-0.2c1.8,0,3.6,0,5.5,0c-0.7,1.2-1.2,2.3-1.9,3.4c-0.1,0.2-0.4,0.3-0.6,0.3c-1.7,0-3.4,0-5.4,0
			C70.2,12.4,70.8,11.2,71.5,10.1z M50.6,41.2c-2.3,0-4.6,0-7,0c0-10.5,0-20.9,0-31.3c8.2,0,16.3,0,24.6,0c-0.7,1.2-1.3,2.4-1.9,3.5
			c-0.1,0.2-0.6,0.2-0.9,0.2c-2.4,0-4.9,0-7.3,0c-2.9,0-4.5,1.6-4.5,4.4c0,1.4,0,2.9,0,4.3c0,2.5,1.7,4.1,4.2,4.2c0.4,0,0.9,0,1.5,0
			c-0.2,0.4-0.3,0.6-0.4,0.9c-2.3,4.4-4.7,8.7-7,13.1C51.5,41,51.2,41.2,50.6,41.2z M59.8,41.2c-1.6,0-3.3,0-5.1,0
			c0.2-0.4,0.3-0.6,0.4-0.8c2.4-4.4,4.7-8.8,7.1-13.2c0.3-0.5,0.6-0.7,1.2-0.7c1.6,0,3.3,0,5.1,0c-0.2,0.4-0.3,0.6-0.4,0.8
			c-2.4,4.4-4.7,8.8-7.1,13.2C60.7,41,60.4,41.2,59.8,41.2z M91.1,70.4c0,0.1,0,0.3,0.1,0.5c-0.6,0-1.1,0-1.7,0c-3.5,0-7.1,0-10.6,0
			c-0.6,0-0.9-0.1-1-0.7c-2.3-8.5-4.6-17-6.9-25.5c0-0.1,0-0.2,0-0.4c0.3,0,0.5-0.1,0.8-0.1c3.8,0,7.6,0,11.4,0c0.5,0,0.9,0.1,1,0.7
			C86.5,53.4,88.8,61.9,91.1,70.4z"/>
		<path class="st1" d="M66.3,55.3c-4.8,0-9.6,0-14.4,0c-15,0-30,0-45,0c-1.6,0-2.1,0.4-2.1,2.1c0,13,0,25.9,0,38.9c0,1.5,0.5,2,2,2
			c4.1,0,8.3,0,12.4,0c1.2,0,1.9-0.6,1.9-1.5c0-1-0.6-1.5-1.9-1.5c-3.2,0-6.4,0-9.7,0c-0.5,0-1.1,0-1.7,0c0-12.4,0-24.7,0-37
			c19.2,0,38.3,0,57.5,0c0,12.3,0,24.6,0,37c-0.5,0-0.9,0-1.2,0c-12.6,0-25.1,0-37.7,0c-0.4,0-0.7,0-1.1,0c-0.8,0.1-1.2,0.6-1.3,1.3
			c-0.1,0.7,0.2,1.3,0.9,1.5c0.4,0.1,0.8,0.1,1.1,0.1c13.4,0,26.7,0,40.1,0c1.7,0,2.2-0.4,2.2-2.1c0-12.9,0-25.9,0-38.8
			C68.4,55.7,68,55.3,66.3,55.3z"/>
		<path class="st1" d="M13.4,62.4c-0.7-0.1-1.3,0.3-1.5,1c-0.1,0.3-0.1,0.6-0.1,1c0,8.2,0,16.5,0,24.7c0,0.4,0,0.7,0.1,1.1
			c0.2,0.7,0.8,1.1,1.5,1c0.7-0.1,1.2-0.5,1.3-1.2c0.1-0.4,0.1-0.7,0.1-1.1c0-4,0-8.1,0-12.1c0-4.1,0-8.1,0-12.2c0-0.3,0-0.7-0.1-1
			C14.6,62.8,14.1,62.4,13.4,62.4z"/>
		<path class="st1" d="M46.9,89.6c0,0.9,0.7,1.5,1.5,1.5c0.8,0,1.4-0.6,1.5-1.5c0-0.2,0-0.4,0-0.6c0-7.9,0-15.8,0-23.6
			c0-0.6,0-1.2,0-1.8c-0.1-0.8-0.6-1.3-1.4-1.3c-0.5,0.1-1,0.5-1.4,0.9c-0.2,0.2-0.1,0.7-0.1,1c0,4.1,0,8.3,0,12.4c0,0,0,0,0,0
			c0,3.4,0,6.8,0,10.2C46.9,87.8,46.8,88.7,46.9,89.6z"/>
		<path class="st1" d="M58.6,85c0,0.9,0.5,1.4,1.4,1.5c0.8,0.1,1.5-0.5,1.6-1.4c0-0.3,0-0.5,0-0.8c0-6.6,0-13.2,0-19.8
			c0-0.4,0.1-1-0.2-1.2c-0.4-0.4-0.9-0.9-1.4-0.9c-0.7-0.1-1.2,0.4-1.3,1.2c0,0.3,0,0.6,0,1c0,3.3,0,6.6,0,10c0,2.2,0,4.5,0,6.7
			C58.6,82.5,58.5,83.8,58.6,85z"/>
		<path class="st1" d="M20.6,84.4c0-6.7,0-13.3,0-20c0-0.3,0-0.7-0.1-1c-0.2-0.8-1.1-1.3-1.9-1c-0.8,0.3-1,1-1,1.8
			c0,3.4,0,6.8,0,10.3c0,2.7,0,5.5,0,8.2c0,0.8,0,1.6,0,2.4c0.1,0.8,0.7,1.4,1.5,1.4c0.8,0,1.4-0.6,1.4-1.4
			C20.6,84.9,20.6,84.7,20.6,84.4z"/>
		<path class="st1" d="M44,74.5c0-3.4,0-6.8,0-10.2c0-1.2-0.5-1.9-1.5-1.9c-0.9,0-1.5,0.7-1.5,1.9c0,3.6,0,7.2,0,10.7
			c0,3.3,0,6.6,0,9.9c0,1.2,0.8,1.9,1.7,1.7c0.9-0.2,1.2-0.9,1.2-1.7C44,81.3,44,77.9,44,74.5z"/>
		<path class="st1" d="M55.5,63.3c-0.4-0.4-0.9-0.8-1.4-0.9c-0.7-0.1-1.2,0.4-1.3,1.2c-0.1,0.3,0,0.6,0,1c0,3.3,0,6.6,0,9.9
			c0,0,0,0,0,0c0,3.3,0,6.6,0,10c0,0.3,0,0.6,0,0.9c0.1,0.7,0.5,1.2,1.3,1.3c0.8,0.1,1.3-0.3,1.6-1c0.1-0.3,0.1-0.6,0.1-1
			c0-6.7,0-13.5,0-20.2C55.7,64,55.7,63.5,55.5,63.3z"/>
		<path class="st1" d="M32.2,63.9c0-0.5-0.3-1.1-0.7-1.4c-1-0.7-2.2,0.1-2.2,1.5c0,3.5,0,7,0,10.4c0,3.4,0,6.9,0,10.3
			c0,1.1,0.6,1.7,1.5,1.7c0.9,0,1.5-0.6,1.5-1.6C32.3,77.9,32.3,70.9,32.2,63.9z"/>
		<path class="st1" d="M38.1,74.5c0-3.4,0-6.8,0-10.3c0-1.2-0.5-1.9-1.5-1.9c-0.9,0-1.5,0.7-1.5,1.9c0,6.8,0,13.6,0,20.4
			c0,1.2,0.5,1.9,1.5,1.9c0.9,0,1.5-0.7,1.5-1.9C38.1,81.3,38.1,77.9,38.1,74.5z"/>
		<path class="st1" d="M23.5,85.3c0.2,1,1.2,1.5,2.1,1.1c0.7-0.3,0.8-0.9,0.8-1.6c0-3.4,0-6.8,0-10.2c0,0,0,0,0,0c0-1.1,0-2.3,0-3.4
			c0-2.4,0-4.8,0-7.2c0-0.9-0.6-1.5-1.4-1.5c-0.8,0-1.4,0.6-1.5,1.5c0,0.2,0,0.4,0,0.6c0,6.7,0,13.3,0,20
			C23.5,84.7,23.4,85,23.5,85.3z"/>
		<path class="st1" d="M35.2,89.6c0,0.8,0.7,1.5,1.5,1.5c0.8,0,1.5-0.7,1.5-1.5c0-0.8-0.6-1.4-1.4-1.4
			C35.9,88.2,35.2,88.8,35.2,89.6z"/>
		<path class="st1" d="M42.5,88.2c-0.8,0-1.4,0.6-1.5,1.4c0,0.8,0.6,1.5,1.4,1.5c0.8,0,1.5-0.7,1.5-1.5C44,88.9,43.3,88.2,42.5,88.2
			z"/>
		<path class="st1" d="M30.9,88.2c-0.8,0-1.5,0.6-1.5,1.4c0,0.8,0.7,1.5,1.5,1.5c0.8,0,1.5-0.7,1.5-1.5
			C32.3,88.8,31.7,88.2,30.9,88.2z"/>
		<path class="st1" d="M60,88.2c-0.8,0-1.5,0.6-1.5,1.5c0,0.8,0.6,1.4,1.4,1.5c0.8,0,1.5-0.7,1.5-1.5C61.5,88.9,60.9,88.2,60,88.2z"
			/>
		<path class="st1" d="M17.6,89.6c0,0.8,0.7,1.5,1.5,1.5c0.8,0,1.5-0.7,1.5-1.5c0-0.8-0.6-1.5-1.5-1.4
			C18.3,88.2,17.6,88.9,17.6,89.6z"/>
		<path class="st1" d="M26.4,89.7c0-0.8-0.6-1.5-1.5-1.5c-0.8,0-1.4,0.7-1.5,1.4c0,0.8,0.7,1.5,1.5,1.5
			C25.7,91.2,26.4,90.5,26.4,89.7z"/>
		<path class="st1" d="M54.2,88.2c-0.8,0-1.4,0.6-1.5,1.4c0,0.8,0.6,1.5,1.4,1.6c0.8,0,1.5-0.7,1.5-1.5C55.7,88.9,55,88.2,54.2,88.2
			z"/>
		<path class="st2" d="M59.2,26.5c-0.6,0-1,0-1.5,0c-2.5,0-4.2-1.7-4.2-4.2c0-1.4,0-2.9,0-4.3c0-2.9,1.6-4.4,4.5-4.4
			c2.4,0,4.9,0,7.3,0c0.3,0,0.8,0,0.9-0.2c0.7-1.1,1.3-2.2,1.9-3.5c-8.3,0-16.4,0-24.6,0c0,10.4,0,20.8,0,31.3c2.4,0,4.7,0,7,0
			c0.6,0,0.9-0.2,1.2-0.8c2.3-4.4,4.7-8.7,7-13.1C58.9,27.2,59,26.9,59.2,26.5z"/>
		<path class="st3" d="M83.2,44.2c-3.8,0-7.6,0-11.4,0c-0.3,0-0.5,0.1-0.8,0.1c0,0.2,0,0.3,0,0.4c2.3,8.5,4.6,17,6.9,25.5
			c0.2,0.6,0.5,0.7,1,0.7c3.5,0,7.1,0,10.6,0c0.5,0,1.1,0,1.7,0c0-0.2-0.1-0.4-0.1-0.5c-2.3-8.5-4.6-17-6.9-25.5
			C84.1,44.3,83.8,44.2,83.2,44.2z"/>
		<path class="st4" d="M70.1,16.6c-4,0-8.1,0-12.1,0c-1.1,0-1.5,0.3-1.5,1.4c0,1.4,0,2.8,0,4.2c0,1,0.4,1.4,1.4,1.4
			c8.1,0,16.3,0,24.4,0c1,0,1.4-0.4,1.4-1.4c0-1.3,0-2.7,0-4c0-1.3-0.3-1.5-1.5-1.5C78.1,16.6,74.1,16.6,70.1,16.6
			C70.1,16.6,70.1,16.6,70.1,16.6z"/>
		<path class="st5" d="M36.6,37.6c1.3,0,2.5,0,3.8,0c0-8.5,0-16.9,0-25.3c-1.3,0-2.6,0-3.8,0C36.6,20.7,36.6,29.1,36.6,37.6z"/>
		<path class="st6" d="M68.5,26.5c-1.8,0-3.4,0-5.1,0c-0.6,0-0.9,0.2-1.2,0.7c-2.3,4.4-4.7,8.8-7.1,13.2c-0.1,0.2-0.2,0.5-0.4,0.8
			c1.8,0,3.4,0,5.1,0c0.6,0,0.9-0.2,1.2-0.7c2.3-4.4,4.7-8.8,7.1-13.2C68.2,27.1,68.3,26.9,68.5,26.5z"/>
		<path class="st6" d="M74.9,13.6c0.2,0,0.6-0.1,0.6-0.3c0.6-1.1,1.2-2.2,1.9-3.4c-1.9,0-3.7,0-5.5,0c-0.2,0-0.4,0.1-0.5,0.2
			c-0.6,1.1-1.2,2.2-1.9,3.5C71.5,13.6,73.2,13.6,74.9,13.6z"/>
	</g>
	<path class="st2" d="M90.5,16.5c-0.5-1.9-0.9-3.7-1.4-5.6c-0.1-0.3-0.2-0.6-0.3-1c-2.5,0-5.1,0-7.6,0c-0.2,0-0.5,0.2-0.6,0.4
		c-0.6,1-1.1,2.1-1.8,3.3c1.2,0,2.3,0,3.3,0c2.9,0,4.4,1.6,4.4,4.5c0,1.5,0,2.9,0,4.4c0,2.4-1.7,4-4.1,4c-3.3,0-6.5,0-9.8,0
		c-0.4,0-0.9,0.2-1.1,0.5c-2.5,4.6-5,9.2-7.4,13.7c0,0.1-0.1,0.2-0.1,0.3c10.8,0,21.6,0,32.5,0c-0.4-1.8-0.9-3.6-1.3-5.4
		c-1-3.9-2-7.9-2.9-11.8c0-0.1-0.1-0.2-0.1-0.4c-0.2-1,0.2-1.7,1.1-1.9c-0.1-1.3-1-2.6-1.3-3.8C91.4,17.8,90.7,17.3,90.5,16.5z"/>
</g>
</svg>