<!-- Generator: Adobe Illustrator 21.1.0, SVG Export Plug-In  -->
<svg version="1.1"
	 xmlns="http://www.w3.org/2000/svg" xmlns:xlink="http://www.w3.org/1999/xlink" xmlns:a="http://ns.adobe.com/AdobeSVGViewerExtensions/3.0/"
	 x="0px" y="0px" width="115px" height="115px" viewBox="0 0 115 115" style="enable-background:new 0 0 115 115;"
	 xml:space="preserve">
<style type="text/css">
	.st0{fill:#B4DD7F;}
	.st1{fill:#FCD770;}
	.st2{fill:#838F9B;}
	.st3{fill:#69D6F4;}
	.st4{fill:#E6E9ED;}
	.st5{fill:#1E1713;}
	.st6{fill:#FF0000;}
	.st7{fill:#FAFAFA;}
</style>
<defs>
</defs>
<g>
	<g>
		<path class="st0" d="M98.4,16.6V36H79V16.6H98.4z"/>
		<path class="st0" d="M50,16.6V36H30.6V16.6H50z"/>
		<path class="st1" d="M85.5,23.1h6.5v6.5h-6.5V23.1z"/>
		<path class="st1" d="M37.1,23.1h6.5v6.5h-6.5V23.1z"/>
		<path class="st2" d="M41.3,44.7c1.5-1.5,3.4-2.3,5.5-2.3c2.1,0,4,0.8,5.5,2.3l18,18c1.5,1.5,2.3,3.4,2.3,5.5s-0.8,4-2.3,5.5l-1,1
			l-29-29L41.3,44.7z"/>
		<path class="st2" d="M37.1,106.9l-4.2,4.2c-1.5,1.5-3.4,2.3-5.5,2.3s-4-0.8-5.5-2.3l-18-18c-1.5-1.5-2.3-3.4-2.3-5.5
			c0-2.1,0.8-4,2.3-5.5l4.2-4.2L37.1,106.9z"/>
		<path class="st3" d="M69.4,74.7l-32.3,32.3l-29-29l32.3-32.3L69.4,74.7z"/>
		<path class="st4" d="M41.3,44.7L30.6,55.3V36H50V16.6h29V36h19.4v41.9H66.1l4.2-4.2c1.5-1.5,2.3-3.4,2.3-5.5s-0.8-4-2.3-5.5
			l-18-18c-1.5-1.5-3.4-2.3-5.5-2.3C44.7,42.4,42.7,43.2,41.3,44.7z"/>
		<path class="st1" d="M59.7,74.7L37.1,97.3L17.7,77.9l22.6-22.6L59.7,74.7z"/>
		<path class="st0" d="M41.9,76.3c0,1.8-1.4,3.2-3.2,3.2c-1.8,0-3.2-1.4-3.2-3.2c0-1.8,1.4-3.2,3.2-3.2
			C40.5,73.1,41.9,74.5,41.9,76.3z"/>
		<g>
			<path class="st5" d="M11.8,93.6l2.3-2.3l9.7,9.7l-2.3,2.3L11.8,93.6z"/>
			<path class="st5" d="M47.9,79.6l4.9-4.9l-4.9-4.9L45.6,72l2.6,2.6l-2.6,2.6L47.9,79.6z"/>
			<path class="st5" d="M40.3,66.7l2.6,2.6l2.3-2.3l-4.9-4.9l-4.9,4.9l2.3,2.3L40.3,66.7z"/>
			<path class="st5" d="M29.5,82.8l2.3-2.3l-2.6-2.6l2.6-2.6L29.5,73l-4.9,4.9L29.5,82.8z"/>
			<path class="st5" d="M42,85.5l-2.3-2.3l-2.6,2.6l-2.6-2.6l-2.3,2.3l4.9,4.9L42,85.5z"/>
			<path class="st5" d="M37.1,99.5L62,74.7L40.3,53L15.5,77.9L37.1,99.5z M57.4,74.7L37.1,95L20,77.9l20.3-20.3L57.4,74.7z"/>
			<path class="st5" d="M38.7,81.1c2.7,0,4.8-2.2,4.8-4.8c0-2.7-2.2-4.8-4.8-4.8c-2.7,0-4.8,2.2-4.8,4.8C33.9,79,36,81.1,38.7,81.1z
				 M38.7,74.7c0.9,0,1.6,0.7,1.6,1.6c0,0.9-0.7,1.6-1.6,1.6c-0.9,0-1.6-0.7-1.6-1.6C37.1,75.4,37.8,74.7,38.7,74.7z"/>
			<path class="st5" d="M100,15H29v39.7L2.8,80.9C1,82.7,0,85.1,0,87.6c0,2.5,1,4.9,2.8,6.6l18,18c1.8,1.8,4.1,2.8,6.6,2.8
				s4.9-1,6.6-2.8l32.7-32.7H100V15z M96.8,34.4H80.6V18.2h16.1V34.4z M48.4,18.2v16.1H32.3V18.2H48.4z M69.3,72.4L42.6,45.7
				c1.1-1,2.6-1.6,4.2-1.6c1.6,0,3.2,0.6,4.4,1.8l18,18c1.2,1.2,1.8,2.7,1.8,4.4C71,69.8,70.4,71.2,69.3,72.4z M40.3,47.9l26.8,26.8
				l-30,30L10.3,77.9L40.3,47.9z M31.8,110c-2.3,2.3-6.4,2.3-8.7,0l-18-18c-1.1-1.1-1.8-2.7-1.8-4.4c0-1.6,0.7-3.2,1.8-4.4l3-3
				l26.8,26.8L31.8,110z M70,76.3l1.4-1.4c1.7-1.7,2.8-4.2,2.8-6.6c0-2.5-1-4.9-2.8-6.6l-18-18c-1.8-1.8-4.1-2.8-6.6-2.8
				s-4.9,1-6.6,2.8l-7.9,7.9V37.6h19.4V18.2h25.8v19.4h19.4v38.7H70z"/>
			<path class="st5" d="M45.2,21.5h-9.7v9.7h9.7V21.5z M41.9,27.9h-3.2v-3.2h3.2V27.9z"/>
			<path class="st5" d="M93.5,31.1v-9.7h-9.7v9.7H93.5z M87.1,24.7h3.2v3.2h-3.2V24.7z"/>
			<path class="st5" d="M67.7,29.5h-9.7v-8.1h-3.2v11.3h12.9V29.5z"/>
			<path class="st5" d="M71,37.6h3.2V19.8H61.3v3.2H71V37.6z"/>
			<path class="st5" d="M83.9,47.3h3.2V44h6.5v-3.2h-9.7V47.3z"/>
			<path class="st5" d="M90.3,50.5h-6.5v3.2h9.7v-6.5h-3.2V50.5z"/>
			<path class="st5" d="M54.8,36h3.2v3.2h-3.2V36z"/>
			<path class="st5" d="M61.3,36h3.2v3.2h-3.2V36z"/>
			<path class="st5" d="M35.5,40.8h3.2V44h-3.2V40.8z"/>
			<path class="st5" d="M83.9,66.6h6.5v6.5h3.2v-9.7h-9.7V66.6z"/>
			<path class="st5" d="M80.6,63.4h-3.2v9.7h9.7v-3.2h-6.5V63.4z"/>
			<path class="st5" d="M90.3,56.9h3.2v3.2h-3.2V56.9z"/>
			<path class="st5" d="M83.9,56.9h3.2v3.2h-3.2V56.9z"/>
			<path class="st5" d="M77.4,56.9h3.2v3.2h-3.2V56.9z"/>
			<path class="st5" d="M71,44h6.5v9.7h3.2V40.8H71V44z"/>
			<path class="st5" d="M67.7,42.4h-3.2v8.1h9.7v-3.2h-6.5V42.4z"/>
		</g>
	</g>
	<path class="st6" d="M115,5.3c0-2.9-2.4-5.3-5.3-5.3H74.3C71.4,0,69,2.4,69,5.3v35.5c0,2.9,2.4,5.3,5.3,5.3h35.5
		c2.9,0,5.3-2.4,5.3-5.3V5.3z"/>
	<path class="st7" d="M103.2,34.2l-0.2,0.2c-0.8,0.8-2.1,0.8-3,0l-19-19c-0.8-0.8-0.8-2.1,0-3l0.2-0.2c0.8-0.8,2.1-0.8,3,0l19,19
		C104,32,104,33.3,103.2,34.2z"/>
	<path class="st7" d="M81.3,34.8l-0.2-0.2c-0.8-0.8-0.8-2.1,0-3l19-19c0.8-0.8,2.1-0.8,3,0l0.2,0.2c0.8,0.8,0.8,2.1,0,3l-19,19
		C83.4,35.6,82.1,35.6,81.3,34.8z"/>
</g>
</svg>