<?xml version="1.0" encoding="UTF-8"?>
<svg id="Capa_1" xmlns="http://www.w3.org/2000/svg" version="1.1" viewBox="0 0 195.3 195.3">
  <!-- Generator: Adobe Illustrator 29.5.1, SVG Export Plug-In . SVG Version: 2.1.0 Build 141)  -->
  <defs>
    <style>
      .st0 {
        fill: #fafafa;
      }

      .st1 {
        fill: red;
      }
    </style>
  </defs>
  <path class="st1" d="M194.9,22.5c0-12.3-10.2-22.5-22.5-22.5H22.5C10.2,0,0,10.2,0,22.5v150.4C0,185.1,10.2,195.3,22.5,195.3h150.4c12.3,0,22.5-10.2,22.5-22.5V22.5h-.4Z"/>
  <path class="st0" d="M144.9,144.9l-.8.8c-3.4,3.4-8.9,3.4-12.7,0L50.8,65.2c-3.4-3.4-3.4-8.9,0-12.7l.8-.8c3.4-3.4,8.9-3.4,12.7,0l80.5,80.5c3.4,3.4,3.4,8.9,0,12.7Z"/>
  <path class="st0" d="M52.1,147.4l-.8-.8c-3.4-3.4-3.4-8.9,0-12.7l80.5-80.5c3.4-3.4,8.9-3.4,12.7,0l.8.8c3.4,3.4,3.4,8.9,0,12.7l-80.5,80.5c-3.8,3.4-9.3,3.4-12.7,0Z"/>
</svg>