<!-- Generator: Adobe Illustrator 19.0.0, SVG Export Plug-In  -->
<svg version="1.1"
	 xmlns="http://www.w3.org/2000/svg" xmlns:xlink="http://www.w3.org/1999/xlink" xmlns:a="http://ns.adobe.com/AdobeSVGViewerExtensions/3.0/"
	 x="0px" y="0px" width="158.9px" height="164.6px" viewBox="0 0 158.9 164.6" style="enable-background:new 0 0 158.9 164.6;"
	 xml:space="preserve">
<style type="text/css">
	.st0{fill:#FFFFFF;}
	.st1{fill:#FFFFFF;}
</style>
<defs>
</defs>
<g id="jdGzYy_1_">
	<g>
		<path class="st0" d="M5.3,112.4C3.6,87.2,1.8,62,0,36.4c4.9,2.8,9.5,5.4,14,8.1c5.4,3.1,10.7,6.2,16,9.4c0.8,0.5,1.5,1.7,1.6,2.6
			c0.6,13.3,1.1,26.6,1.6,39.9c0,0.7-0.3,1.7-0.9,2c-8.8,4.8-17.6,9.4-26.4,14.1C5.9,112.5,5.7,112.4,5.3,112.4z"/>
		<path class="st0" d="M158.9,36.8c-1.8,25.2-3.5,50.4-5.3,75.8c-0.7-0.3-1.3-0.5-1.8-0.7c-8.2-4.4-16.4-8.8-24.6-13.1
			c-1.3-0.7-1.7-1.4-1.6-2.8c0.6-13.3,1.1-26.6,1.7-39.9c0-0.7,0.5-1.6,1.1-2c9.9-5.8,19.9-11.5,29.8-17.3
			C158.3,36.7,158.5,36.8,158.9,36.8z"/>
		<path class="st0" d="M12.1,123.7c9.2-4.9,17.9-9.6,26.8-14.2c0.6-0.3,1.6-0.2,2.2,0.1c10.2,5.7,20.4,11.5,30.6,17.3
			c0.6,0.3,1.3,1.2,1.3,1.8c0.1,11.8,0.1,23.6,0.1,36C52.7,150.9,32.6,137.5,12.1,123.7z"/>
		<path class="st0" d="M146.8,123.7c-20.4,13.7-40.4,27.1-60.8,40.8c-0.1-1-0.1-1.5-0.1-2.1c0-11,0-21.9,0-32.9
			c0-1.2,0.2-2.1,1.4-2.7c10.2-5.7,20.3-11.4,30.5-17.1c0.7-0.4,1.8-0.5,2.4-0.2C128.9,114.1,137.6,118.8,146.8,123.7z"/>
		<path class="st0" d="M73.1,0c0,4.8,0,9.1,0,13.5c0,5.1,0,10.1,0,15.2c0,1.2-0.4,1.9-1.5,2.4c-10.3,4-20.5,8.1-30.7,12.3
			c-1.4,0.6-2.5,0.5-3.8-0.3c-9.3-5.4-18.6-10.8-27.8-16.1c-0.4-0.3-0.9-0.6-1.7-1.1C29.5,17.2,51.2,8.6,73.1,0z"/>
		<path class="st0" d="M86.2,0.1c21.6,8.5,43.2,17,65.3,25.7c-4.1,2.4-7.8,4.5-11.5,6.7c-6.1,3.6-12.3,7.2-18.5,10.6
			c-0.8,0.5-2.2,0.5-3.1,0.2c-10.4-4.1-20.8-8.2-31.2-12.4c-0.6-0.2-1.3-1.1-1.3-1.7c-0.1-9.5,0-18.9,0-28.4
			C85.9,0.7,86,0.5,86.2,0.1z"/>
		<path class="st1" d="M73.1,115.2c-5.5-3.1-10.7-6-15.8-8.9c-3.9-2.2-7.8-4.3-11.6-6.6c-0.7-0.4-1.4-1.4-1.5-2.2
			c-0.6-11.6-1-23.1-1.5-34.7c0-0.4,0-0.8,0.1-1.6c4.6,2.7,9,5.2,13.3,7.7c5.1,3,10.2,5.9,15.3,8.9c0.7,0.4,1.5,1.4,1.6,2.1
			C73.1,91.5,73.1,103.1,73.1,115.2z"/>
		<path class="st1" d="M85.9,114.9c0-4.4,0-8.6,0-12.9c0-7.2,0-14.4,0.1-21.6c0-0.9,0.6-2.1,1.3-2.5c9.3-5.5,18.7-10.9,28-16.3
			c0.2-0.1,0.5-0.2,0.4-0.1c0,5.2,0.1,10.5,0,15.8c-0.1,6.6-0.4,13.2-0.7,19.7c0,0.9-0.6,2.1-1.3,2.5c-8.7,5-17.5,9.9-26.2,14.8
			C86.9,114.5,86.5,114.7,85.9,114.9z"/>
		<path class="st1" d="M50.9,51c9.5-3.8,18.5-7.4,27.6-11c0.6-0.2,1.5-0.2,2.2,0.1c9,3.5,18,7.2,27.2,10.8c-0.5,0.4-0.8,0.8-1.3,1
			c-8.6,5-17.1,9.9-25.7,14.8c-0.6,0.3-1.7,0.6-2.2,0.3C69.5,61.8,60.4,56.5,50.9,51z"/>
	</g>
</g>
</svg>