<!-- Generator: Adobe Illustrator 19.0.0, SVG Export Plug-In  -->
<svg version="1.1"
	 xmlns="http://www.w3.org/2000/svg" xmlns:xlink="http://www.w3.org/1999/xlink" xmlns:a="http://ns.adobe.com/AdobeSVGViewerExtensions/3.0/"
	 x="0px" y="0px" width="251.7px" height="273.4px" viewBox="0 0 251.7 273.4" style="enable-background:new 0 0 251.7 273.4;"
	 xml:space="preserve">
<style type="text/css">
	.st0{fill:#FFFFFF;}
	.st1{fill:#FFFFFF;}
</style>
<defs>
</defs>
<g>
	<g id="jdGzYy_1_">
		<g>
			<path class="st0" d="M51.7,112.4c-1.8-25.2-3.5-50.4-5.3-76c4.9,2.8,9.5,5.4,14,8.1c5.4,3.1,10.7,6.2,16,9.4
				c0.8,0.5,1.5,1.7,1.6,2.6c0.6,13.3,1.1,26.6,1.6,39.9c0,0.7-0.3,1.7-0.9,2c-8.8,4.8-17.6,9.4-26.4,14.1
				C52.3,112.5,52.1,112.4,51.7,112.4z"/>
			<path class="st0" d="M205.3,36.8c-1.8,25.2-3.5,50.4-5.3,75.8c-0.7-0.3-1.3-0.5-1.8-0.7c-8.2-4.4-16.4-8.8-24.6-13.1
				c-1.3-0.7-1.7-1.4-1.6-2.8c0.6-13.3,1.1-26.6,1.7-39.9c0-0.7,0.5-1.6,1.1-2c9.9-5.8,19.9-11.5,29.8-17.3
				C204.7,36.7,204.9,36.8,205.3,36.8z"/>
			<path class="st0" d="M58.5,123.7c9.2-4.9,17.9-9.6,26.8-14.2c0.6-0.3,1.6-0.2,2.2,0.1c10.2,5.7,20.4,11.5,30.6,17.3
				c0.6,0.3,1.3,1.2,1.3,1.8c0.1,11.8,0.1,23.6,0.1,36C99.1,150.9,79,137.5,58.5,123.7z"/>
			<path class="st0" d="M193.2,123.7c-20.4,13.7-40.4,27.1-60.8,40.8c-0.1-1-0.1-1.5-0.1-2.1c0-11,0-21.9,0-32.9
				c0-1.2,0.2-2.1,1.4-2.7c10.2-5.7,20.3-11.4,30.5-17.1c0.7-0.4,1.8-0.5,2.4-0.2C175.3,114.1,184,118.8,193.2,123.7z"/>
			<path class="st0" d="M119.5,0c0,4.8,0,9.1,0,13.5c0,5.1,0,10.1,0,15.2c0,1.2-0.4,1.9-1.5,2.4c-10.3,4-20.5,8.1-30.7,12.3
				c-1.4,0.6-2.5,0.5-3.8-0.3c-9.3-5.4-18.6-10.8-27.8-16.1c-0.4-0.3-0.9-0.6-1.7-1.1C75.9,17.2,97.6,8.6,119.5,0z"/>
			<path class="st0" d="M132.6,0.1c21.6,8.5,43.2,17,65.3,25.7c-4.1,2.4-7.8,4.5-11.5,6.7c-6.1,3.6-12.3,7.2-18.5,10.6
				c-0.8,0.5-2.2,0.5-3.1,0.2c-10.4-4.1-20.8-8.2-31.2-12.4c-0.6-0.2-1.3-1.1-1.3-1.7c-0.1-9.5,0-18.9,0-28.4
				C132.3,0.7,132.4,0.5,132.6,0.1z"/>
			<path class="st1" d="M119.5,115.2c-5.5-3.1-10.7-6-15.8-8.9c-3.9-2.2-7.8-4.3-11.6-6.6c-0.7-0.4-1.4-1.4-1.5-2.2
				c-0.6-11.6-1-23.1-1.5-34.7c0-0.4,0-0.8,0.1-1.6c4.6,2.7,9,5.2,13.3,7.7c5.1,3,10.2,5.9,15.3,8.9c0.7,0.4,1.5,1.4,1.6,2.1
				C119.5,91.5,119.5,103.1,119.5,115.2z"/>
			<path class="st1" d="M132.3,114.9c0-4.4,0-8.6,0-12.9c0-7.2,0-14.4,0.1-21.6c0-0.9,0.6-2.1,1.3-2.5c9.3-5.5,18.7-10.9,28-16.3
				c0.2-0.1,0.5-0.2,0.4-0.1c0,5.2,0.1,10.5,0,15.8c-0.1,6.6-0.4,13.2-0.7,19.7c0,0.9-0.6,2.1-1.3,2.5c-8.7,5-17.5,9.9-26.2,14.8
				C133.3,114.5,132.9,114.7,132.3,114.9z"/>
			<path class="st1" d="M97.3,51c9.5-3.8,18.5-7.4,27.6-11c0.6-0.2,1.5-0.2,2.2,0.1c9,3.5,18,7.2,27.2,10.8c-0.5,0.4-0.8,0.8-1.3,1
				c-8.6,5-17.1,9.9-25.7,14.8c-0.6,0.3-1.7,0.6-2.2,0.3C115.9,61.8,106.8,56.5,97.3,51z"/>
		</g>
	</g>
	<g>
		<g>
			<path class="st0" d="M50.8,185l-25.6,27.6L53,241.7v0.7H39.5l-24.2-25.6v25.6H4.5v-57.7h10.9v24.4l21.9-24.4h13.5V185z"/>
			<path class="st0" d="M58.6,242.4v-57.7h10.8v57.7H58.6z"/>
			<path class="st0" d="M130.4,213c0.2,14.6-8.7,29.4-28.9,29.4c-7.1,0-15.6,0-22.7,0v-57.7c7.1,0,15.6,0,22.7,0
				C121.3,184.7,130.1,198.8,130.4,213z M89.7,231.9h11.9c13.1,0,18.3-9.6,18.1-19c-0.2-9-5.5-18-18.1-18H89.7V231.9z"/>
			<path class="st0" d="M178.6,231.5h-30.2l-4.9,10.9h-11.8l25.9-57.7h11.9l25.9,57.7h-11.9L178.6,231.5z M163.5,196.8l-10.7,24.6
				h21.4L163.5,196.8z"/>
			<path class="st0" d="M238.2,184.6h10.9v57.8h-6.8v0.1l-30.4-39v38.9h-10.9v-57.7h8.8l28.3,35.8V184.6z"/>
		</g>
		<g>
			<path class="st1" d="M10.3,265.4H3.7l-1.1,2.4H0l5.7-12.7h2.6l5.7,12.7h-2.6L10.3,265.4z M7,257.8l-2.4,5.4h4.7L7,257.8z"/>
			<path class="st1" d="M23.6,255.1v12.7h-2.1l-0.1-1.2c-0.7,1.1-1.8,1.4-2.9,1.4c-2.6,0-4.6-1.7-4.6-4.7c0-3.1,1.9-4.7,4.5-4.7
				c0.9,0,2.4,0.5,2.9,1.4v-4.9H23.6z M16.1,263.3c0,1.6,1.1,2.6,2.5,2.6c1.4,0,2.6-1,2.6-2.6c0-1.6-1.2-2.6-2.6-2.6
				C17.2,260.7,16.1,261.7,16.1,263.3z"/>
			<path class="st1" d="M34.8,258.8l-3.8,9h-2.4l-3.8-9h2.4l1.2,3l1.4,3.8l1.4-3.7l1.2-3H34.8z"/>
			<path class="st1" d="M37.7,264.1c0.1,1.1,1.1,1.9,2.7,1.9c0.8,0,1.9-0.3,2.4-0.8l1.4,1.4c-0.9,1-2.5,1.4-3.8,1.4
				c-3.1,0-4.9-1.9-4.9-4.8c0-2.7,1.8-4.7,4.7-4.7c3,0,4.9,1.8,4.5,5.5H37.7z M42.6,262.3c-0.1-1.2-1.1-1.7-2.3-1.7
				c-1.2,0-2.2,0.6-2.5,1.7H42.6z"/>
			<path class="st1" d="M48.4,258.9l0.2,1c0.7-1.1,1.6-1.3,2.5-1.3c0.9,0,1.8,0.4,2.3,0.9l-1,1.9c-0.5-0.4-0.9-0.6-1.6-0.6
				c-1.2,0-2.2,0.6-2.2,2.3v4.7h-2.2v-8.9H48.4z"/>
			<path class="st1" d="M57.9,256.4v2.5h2.5v1.9h-2.5v3.9c0,0.9,0.5,1.3,1.2,1.3c0.3,0,0.7-0.1,1.1-0.3l0.6,1.9
				c-0.6,0.3-1.2,0.4-1.8,0.4c-1.9,0.1-3.2-1-3.2-3.3v-3.9H54v-1.9h1.7v-2.3L57.9,256.4z"/>
			<path class="st1" d="M64.4,256.4c0,1.7-2.6,1.7-2.6,0S64.4,254.6,64.4,256.4z M62,258.8v9h2.2v-9H62z"/>
			<path class="st1" d="M72.1,261.2c-0.6-0.6-1.4-0.8-2.2-0.8c-1.1,0-1.6,0.3-1.6,0.9c0,0.6,0.5,0.9,1.7,1c1.7,0.1,3.8,0.5,3.8,2.9
				c0,1.6-1.3,2.9-3.8,2.9c-1.4,0-2.8-0.2-4.1-1.6l1.1-1.6c0.6,0.7,2.1,1.2,3.1,1.2c0.8,0,1.6-0.4,1.6-1.1c0-0.6-0.5-0.9-1.8-0.9
				c-1.7-0.1-3.7-0.7-3.7-2.8c0-2.1,2.1-2.8,3.8-2.8c1.4,0,2.4,0.3,3.5,1.2L72.1,261.2z"/>
			<path class="st1" d="M77.5,256.4c0,1.7-2.6,1.7-2.6,0S77.5,254.6,77.5,256.4z M75.1,258.8v9h2.2v-9H75.1z"/>
			<path class="st1" d="M85.9,267.8v-4.7c0-1.4-0.7-2.4-2.2-2.4c-1.4,0-2.3,1.1-2.3,2.5v4.6h-2.2v-8.9h2l0.1,1.2
				c0.9-0.9,1.8-1.3,2.9-1.3c2.1,0,3.8,1.6,3.8,4.4v4.7H85.9z"/>
			<path class="st1" d="M97,258l1.6,1.2l-1,1.3c0.7,0.8,0.9,1.7,0.9,2.6c0,1.1-0.4,2.7-1.9,3.3c1.5,0.7,1.8,1.8,1.8,3
				c0,2.5-1.9,4-4.5,4c-2.6,0-4.5-1.6-4.5-4h2.2c0,1.2,1.1,1.9,2.3,1.9c1.3,0,2.3-0.7,2.3-1.9c0-1.2-1.2-1.8-2.3-1.8
				c-2.8,0-4.5-1.7-4.5-4.5c0-2.8,2-4.5,4.5-4.5c0.7,0,1.4,0.1,2,0.5L97,258z M91.7,263.1c0,1.6,1.1,2.5,2.3,2.5
				c1.3,0,2.3-0.9,2.3-2.5c0-1.5-1.1-2.5-2.3-2.5C92.8,260.6,91.7,261.5,91.7,263.1z"/>
			<path class="st1" d="M110.7,258.9h2.1v8.9h-2.1l-0.1-1.3c-0.5,1.1-1.9,1.6-2.9,1.6c-2.6,0-4.6-1.6-4.6-4.7c0-3.1,2-4.7,4.7-4.7
				c1.2,0,2.3,0.6,2.8,1.4L110.7,258.9z M105.4,263.3c0,1.7,1.2,2.7,2.6,2.7c3.5,0,3.5-5.4,0-5.4
				C106.5,260.6,105.4,261.6,105.4,263.3z"/>
			<path class="st1" d="M121.3,267.8v-4.7c0-1.4-0.7-2.4-2.2-2.4c-1.4,0-2.3,1.1-2.3,2.5v4.6h-2.2v-8.9h2l0.1,1.2
				c0.9-0.9,1.8-1.3,2.9-1.3c2.1,0,3.8,1.6,3.8,4.4v4.7H121.3z"/>
			<path class="st1" d="M134.7,255.1v12.7h-2.1l-0.1-1.2c-0.7,1.1-1.8,1.4-2.9,1.4c-2.6,0-4.6-1.7-4.6-4.7c0-3.1,1.9-4.7,4.5-4.7
				c0.9,0,2.4,0.5,2.9,1.4v-4.9H134.7z M127.2,263.3c0,1.6,1.1,2.6,2.5,2.6c1.4,0,2.6-1,2.6-2.6c0-1.6-1.2-2.6-2.6-2.6
				C128.3,260.7,127.2,261.7,127.2,263.3z"/>
			<path class="st1" d="M149.5,255.1v12.7h-2.1l-0.1-1.2c-0.7,1.1-1.8,1.4-2.9,1.4c-2.6,0-4.6-1.7-4.6-4.7c0-3.1,1.9-4.7,4.5-4.7
				c0.9,0,2.4,0.5,2.9,1.4v-4.9H149.5z M142,263.3c0,1.6,1.1,2.6,2.5,2.6c1.4,0,2.6-1,2.6-2.6c0-1.6-1.2-2.6-2.6-2.6
				C143.1,260.7,142,261.7,142,263.3z"/>
			<path class="st1" d="M153.5,264.1c0.1,1.1,1.1,1.9,2.7,1.9c0.8,0,1.9-0.3,2.4-0.8l1.4,1.4c-0.9,1-2.5,1.4-3.8,1.4
				c-3.1,0-4.9-1.9-4.9-4.8c0-2.7,1.8-4.7,4.7-4.7c3,0,4.9,1.8,4.5,5.5H153.5z M158.4,262.3c-0.1-1.2-1-1.7-2.3-1.7
				c-1.2,0-2.2,0.6-2.5,1.7H158.4z"/>
			<path class="st1" d="M171.2,258.8l-3.8,9H165l-3.8-9h2.4l1.2,3l1.4,3.8l1.4-3.7l1.2-3H171.2z"/>
			<path class="st1" d="M174.2,264.1c0.1,1.1,1.1,1.9,2.7,1.9c0.8,0,1.9-0.3,2.4-0.8l1.4,1.4c-0.9,1-2.5,1.4-3.8,1.4
				c-3.1,0-4.9-1.9-4.9-4.8c0-2.7,1.8-4.7,4.7-4.7c3,0,4.9,1.8,4.5,5.5H174.2z M179,262.3c-0.1-1.2-1-1.7-2.3-1.7
				c-1.2,0-2.2,0.6-2.5,1.7H179z"/>
			<path class="st1" d="M185,255.1v12.7h-2.2v-12.7H185z"/>
			<path class="st1" d="M195.8,263.3c0,2.6-1.8,4.7-4.7,4.7c-2.9,0-4.6-2.1-4.6-4.7c0-2.6,1.8-4.7,4.6-4.7S195.8,260.8,195.8,263.3z
				 M188.8,263.3c0,1.4,0.8,2.6,2.4,2.6c1.6,0,2.4-1.3,2.4-2.6c0-1.3-0.9-2.6-2.4-2.6C189.6,260.7,188.8,262,188.8,263.3z"/>
			<path class="st1" d="M197.4,271.5v-12.7h2.1l0.1,1.2c0.7-1,1.9-1.4,2.9-1.4c2.8,0,4.6,2,4.6,4.7c0,2.6-1.6,4.7-4.5,4.7
				c-0.9,0-2.3-0.3-3-1.3v4.8H197.4z M204.8,263.3c0-1.4-0.9-2.5-2.5-2.5c-1.6,0-2.5,1.1-2.5,2.5c0,1.4,1,2.5,2.5,2.5
				C203.8,265.9,204.8,264.7,204.8,263.3z"/>
			<path class="st1" d="M214.6,267.8V263c0-1.2-0.6-2.2-1.8-2.2c-1.2,0-1.9,1.1-1.9,2.2v4.8h-2.2v-8.9h2l0.2,1.1
				c0.5-0.9,1.5-1.2,2.4-1.2c1.1,0,2.1,0.4,2.6,1.7c0.8-1.3,1.8-1.6,3-1.6c2.5,0,3.8,1.6,3.8,4.2v4.8h-2.2V263
				c0-1.2-0.5-2.2-1.7-2.2c-1.2,0-1.9,1-1.9,2.2v4.8H214.6z"/>
			<path class="st1" d="M226.8,264.1c0.1,1.1,1.1,1.9,2.7,1.9c0.8,0,1.9-0.3,2.4-0.8l1.4,1.4c-0.9,1-2.5,1.4-3.8,1.4
				c-3.1,0-4.9-1.9-4.9-4.8c0-2.7,1.8-4.7,4.7-4.7c3,0,4.9,1.8,4.5,5.5H226.8z M231.6,262.3c-0.1-1.2-1-1.7-2.3-1.7
				c-1.2,0-2.2,0.6-2.5,1.7H231.6z"/>
			<path class="st1" d="M242,267.8v-4.7c0-1.4-0.7-2.4-2.2-2.4c-1.4,0-2.3,1.1-2.3,2.5v4.6h-2.2v-8.9h2l0.1,1.2
				c0.9-0.9,1.8-1.3,2.9-1.3c2.1,0,3.8,1.6,3.8,4.4v4.7H242z"/>
			<path class="st1" d="M248.9,256.4v2.5h2.5v1.9h-2.5v3.9c0,0.9,0.5,1.3,1.2,1.3c0.3,0,0.7-0.1,1.1-0.3l0.6,1.9
				c-0.6,0.3-1.2,0.4-1.8,0.4c-1.9,0.1-3.2-1-3.2-3.3v-3.9H245v-1.9h1.7v-2.3L248.9,256.4z"/>
		</g>
	</g>
</g>
</svg>