<!-- Generator: Adobe Illustrator 19.0.0, SVG Export Plug-In  -->
<svg version="1.1"
	 xmlns="http://www.w3.org/2000/svg" xmlns:xlink="http://www.w3.org/1999/xlink" xmlns:a="http://ns.adobe.com/AdobeSVGViewerExtensions/3.0/"
	 x="0px" y="0px" width="409px" height="160.5px" viewBox="0 0 409 160.5" style="enable-background:new 0 0 409 160.5;"
	 xml:space="preserve">
<style type="text/css">
	.st0{fill:#01597A;}
	.st1{fill:#6EB125;}
</style>
<defs>
</defs>
<g>
	<g id="jdGzYy_1_">
		<g>
			<path class="st0" d="M5.2,109.6C3.5,85,1.8,60.5,0,35.5c4.8,2.8,9.2,5.3,13.7,7.9c5.2,3,10.5,6,15.6,9.1c0.8,0.5,1.5,1.6,1.5,2.5
				c0.6,13,1.1,25.9,1.6,38.9c0,0.7-0.3,1.7-0.8,2c-8.5,4.6-17.1,9.2-25.7,13.7C5.8,109.6,5.6,109.6,5.2,109.6z"/>
			<path class="st0" d="M154.9,35.9c-1.7,24.5-3.4,49.1-5.2,73.9c-0.7-0.3-1.2-0.4-1.7-0.7c-8-4.3-16-8.6-24-12.8
				c-1.2-0.7-1.6-1.4-1.6-2.7c0.6-13,1.1-25.9,1.7-38.9c0-0.7,0.5-1.6,1.1-1.9c9.7-5.7,19.4-11.2,29.1-16.8
				C154.4,35.8,154.5,35.9,154.9,35.9z"/>
			<path class="st0" d="M11.8,120.6c8.9-4.8,17.5-9.4,26.1-13.9c0.6-0.3,1.6-0.2,2.2,0.1c10,5.6,19.9,11.2,29.8,16.8
				c0.6,0.3,1.3,1.1,1.3,1.7c0.1,11.5,0.1,23,0.1,35.1C51.3,147.1,31.7,134,11.8,120.6z"/>
			<path class="st0" d="M143.1,120.6c-19.9,13.3-39.4,26.4-59.3,39.8c-0.1-0.9-0.1-1.5-0.1-2c0-10.7,0-21.4,0-32.1
				c0-1.2,0.2-2,1.4-2.7c9.9-5.5,19.8-11.1,29.7-16.6c0.6-0.4,1.8-0.5,2.4-0.2C125.7,111.3,134.2,115.8,143.1,120.6z"/>
			<path class="st0" d="M71.3,0c0,4.6,0,8.9,0,13.2c0,4.9,0,9.9,0,14.8c0,1.2-0.3,1.8-1.5,2.3c-10,3.9-20,7.9-29.9,12
				c-1.4,0.6-2.4,0.5-3.7-0.3c-9-5.3-18.1-10.5-27.1-15.7c-0.4-0.3-0.8-0.5-1.6-1.1C28.8,16.7,49.9,8.4,71.3,0z"/>
			<path class="st0" d="M84,0.1c21.1,8.3,42.2,16.6,63.6,25.1c-4,2.3-7.6,4.4-11.2,6.5c-6,3.5-12,7-18,10.4c-0.8,0.4-2.1,0.5-3,0.2
				c-10.2-4-20.3-8-30.4-12.1c-0.6-0.2-1.2-1.1-1.2-1.7c-0.1-9.2,0-18.5,0-27.7C83.7,0.7,83.8,0.5,84,0.1z"/>
			<path class="st1" d="M71.3,112.3c-5.4-3-10.4-5.8-15.4-8.7c-3.8-2.1-7.6-4.2-11.3-6.5c-0.7-0.4-1.4-1.4-1.4-2.1
				c-0.5-11.3-1-22.6-1.4-33.8c0-0.4,0-0.8,0.1-1.6c4.5,2.6,8.8,5.1,13,7.5c5,2.9,10,5.7,14.9,8.7c0.7,0.4,1.5,1.4,1.5,2.1
				C71.3,89.2,71.3,100.5,71.3,112.3z"/>
			<path class="st1" d="M83.7,112c0-4.3,0-8.4,0-12.5c0-7,0-14,0.1-21c0-0.8,0.5-2,1.2-2.4c9.1-5.4,18.2-10.6,27.3-15.9
				c0.2-0.1,0.5-0.2,0.4-0.1c0,5.1,0.1,10.2,0,15.4c-0.1,6.4-0.4,12.8-0.7,19.2c0,0.9-0.6,2.1-1.3,2.4c-8.5,4.9-17,9.6-25.6,14.4
				C84.7,111.7,84.3,111.8,83.7,112z"/>
			<path class="st1" d="M49.6,49.7c9.2-3.7,18-7.2,26.9-10.7c0.6-0.2,1.5-0.2,2.1,0.1c8.8,3.5,17.5,7,26.5,10.6
				c-0.5,0.4-0.8,0.8-1.2,1c-8.4,4.8-16.7,9.7-25.1,14.5c-0.6,0.3-1.6,0.6-2.1,0.3C67.7,60.2,58.9,55.1,49.6,49.7z"/>
		</g>
	</g>
	<g>
		<g>
			<path class="st0" d="M213.2,43.1l-25,26.9l27.1,28.4V99h-13.1l-23.6-24.9V99H168V42.7h10.6v23.8L200,42.7h13.2V43.1z"/>
			<path class="st0" d="M220.7,99V42.7h10.5V99H220.7z"/>
			<path class="st0" d="M290.8,70.4C291,84.6,282.3,99,262.6,99c-6.9,0-15.2,0-22.1,0V42.7c6.9,0,15.2,0,22.1,0
				C281.9,42.7,290.5,56.5,290.8,70.4z M251.1,88.8h11.6c12.8,0,17.8-9.3,17.6-18.5c-0.2-8.8-5.4-17.5-17.6-17.5h-11.6V88.8z"/>
			<path class="st0" d="M337.7,88.4h-29.4L303.5,99H292l25.2-56.3h11.6L354,99h-11.6L337.7,88.4z M323,54.6l-10.5,24h20.9L323,54.6z
				"/>
			<path class="st0" d="M395.9,42.7h10.6V99h-6.6v0.1l-29.6-38V99h-10.6V42.7h8.6l27.6,34.9V42.7z"/>
		</g>
		<g>
			<path class="st1" d="M173.7,121.5h-6.5l-1.1,2.3h-2.5l5.5-12.4h2.5l5.5,12.4h-2.5L173.7,121.5z M170.5,114l-2.3,5.3h4.6
				L170.5,114z"/>
			<path class="st1" d="M186.7,111.5v12.3h-2l-0.1-1.2c-0.7,1-1.7,1.4-2.8,1.4c-2.6,0-4.5-1.7-4.5-4.6c0-3,1.9-4.6,4.4-4.6
				c0.9,0,2.3,0.5,2.9,1.4v-4.8H186.7z M179.4,119.4c0,1.5,1.1,2.6,2.5,2.6c1.4,0,2.5-1,2.5-2.6c0-1.5-1.2-2.5-2.5-2.5
				C180.5,116.9,179.4,117.9,179.4,119.4z"/>
			<path class="st1" d="M197.5,115.1l-3.7,8.8h-2.3l-3.7-8.8h2.3l1.2,2.9l1.3,3.7l1.3-3.6l1.2-2.9H197.5z"/>
			<path class="st1" d="M200.4,120.2c0.1,1.1,1.1,1.9,2.6,1.9c0.8,0,1.8-0.3,2.3-0.8l1.4,1.4c-0.9,1-2.4,1.4-3.7,1.4
				c-3,0-4.8-1.9-4.8-4.6c0-2.6,1.8-4.6,4.6-4.6c2.9,0,4.7,1.8,4.4,5.4H200.4z M205.2,118.4c-0.1-1.1-1-1.7-2.3-1.7
				c-1.2,0-2.1,0.6-2.4,1.7H205.2z"/>
			<path class="st1" d="M210.9,115.1l0.2,1c0.7-1.1,1.6-1.2,2.5-1.2c0.9,0,1.8,0.4,2.2,0.8l-1,1.9c-0.4-0.4-0.8-0.6-1.6-0.6
				c-1.1,0-2.2,0.6-2.2,2.2v4.6h-2.2v-8.7H210.9z"/>
			<path class="st1" d="M220.1,112.6v2.5h2.4v1.9h-2.4v3.8c0,0.8,0.5,1.2,1.1,1.2c0.3,0,0.7-0.1,1-0.3l0.6,1.8
				c-0.6,0.2-1.1,0.4-1.8,0.4c-1.9,0.1-3.1-1-3.1-3.2V117h-1.6v-1.9h1.6v-2.2L220.1,112.6z"/>
			<path class="st1" d="M226.5,112.6c0,1.7-2.5,1.7-2.5,0S226.5,111,226.5,112.6z M224.1,115.1v8.7h2.2v-8.7H224.1z"/>
			<path class="st1" d="M233.9,117.4c-0.6-0.6-1.3-0.8-2.2-0.8c-1,0-1.6,0.3-1.6,0.9c0,0.6,0.5,0.9,1.6,1c1.6,0.1,3.7,0.5,3.7,2.8
				c0,1.5-1.3,2.9-3.7,2.9c-1.4,0-2.8-0.2-4-1.6l1.1-1.5c0.6,0.7,2,1.2,3,1.2c0.8,0,1.6-0.4,1.6-1c0-0.6-0.5-0.8-1.7-0.9
				c-1.6-0.1-3.6-0.7-3.6-2.7c0-2,2.1-2.7,3.7-2.7c1.4,0,2.4,0.3,3.4,1.1L233.9,117.4z"/>
			<path class="st1" d="M239.2,112.6c0,1.7-2.5,1.7-2.5,0S239.2,111,239.2,112.6z M236.9,115.1v8.7h2.2v-8.7H236.9z"/>
			<path class="st1" d="M247.4,123.8v-4.6c0-1.3-0.7-2.3-2.1-2.3c-1.3,0-2.2,1.1-2.2,2.4v4.4h-2.1v-8.7h1.9l0.1,1.2
				c0.9-0.9,1.8-1.3,2.9-1.3c2,0,3.7,1.5,3.7,4.3v4.6H247.4z"/>
			<path class="st1" d="M258.2,114.2l1.6,1.2l-1,1.2c0.7,0.8,0.9,1.6,0.9,2.6c0,1.1-0.4,2.6-1.8,3.2c1.4,0.7,1.8,1.8,1.8,2.9
				c0,2.4-1.8,3.9-4.4,3.9s-4.4-1.5-4.4-3.9h2.1c0,1.1,1,1.9,2.3,1.9c1.2,0,2.2-0.7,2.2-1.9c0-1.2-1.1-1.7-2.2-1.7
				c-2.7,0-4.4-1.7-4.4-4.4c0-2.7,2-4.4,4.4-4.4c0.7,0,1.4,0.1,2,0.5L258.2,114.2z M253.1,119.2c0,1.5,1,2.4,2.3,2.4
				c1.2,0,2.3-0.9,2.3-2.4c0-1.5-1-2.5-2.3-2.5C254.1,116.8,253.1,117.7,253.1,119.2z"/>
			<path class="st1" d="M271.6,115.1h2.1v8.7h-2l-0.1-1.3c-0.5,1-1.9,1.5-2.8,1.5c-2.6,0-4.5-1.6-4.5-4.6c0-3,2-4.6,4.5-4.6
				c1.2,0,2.3,0.5,2.8,1.4L271.6,115.1z M266.4,119.4c0,1.7,1.1,2.6,2.6,2.6c3.4,0,3.4-5.3,0-5.3
				C267.5,116.8,266.4,117.8,266.4,119.4z"/>
			<path class="st1" d="M281.9,123.8v-4.6c0-1.3-0.7-2.3-2.1-2.3c-1.3,0-2.2,1.1-2.2,2.4v4.4h-2.1v-8.7h1.9l0.1,1.2
				c0.9-0.9,1.8-1.3,2.9-1.3c2,0,3.7,1.5,3.7,4.3v4.6H281.9z"/>
			<path class="st1" d="M294.9,111.5v12.3h-2l-0.1-1.2c-0.7,1-1.7,1.4-2.8,1.4c-2.6,0-4.5-1.7-4.5-4.6c0-3,1.9-4.6,4.4-4.6
				c0.9,0,2.3,0.5,2.9,1.4v-4.8H294.9z M287.6,119.4c0,1.5,1.1,2.6,2.5,2.6c1.4,0,2.5-1,2.5-2.6c0-1.5-1.2-2.5-2.5-2.5
				C288.7,116.9,287.6,117.9,287.6,119.4z"/>
			<path class="st1" d="M309.4,111.5v12.3h-2l-0.1-1.2c-0.7,1-1.7,1.4-2.8,1.4c-2.6,0-4.5-1.7-4.5-4.6c0-3,1.9-4.6,4.4-4.6
				c0.9,0,2.3,0.5,2.9,1.4v-4.8H309.4z M302.1,119.4c0,1.5,1.1,2.6,2.5,2.6c1.4,0,2.5-1,2.5-2.6c0-1.5-1.2-2.5-2.5-2.5
				C303.2,116.9,302.1,117.9,302.1,119.4z"/>
			<path class="st1" d="M313.3,120.2c0.1,1.1,1.1,1.9,2.6,1.9c0.8,0,1.8-0.3,2.3-0.8l1.4,1.4c-0.9,1-2.4,1.4-3.7,1.4
				c-3,0-4.8-1.9-4.8-4.6c0-2.6,1.8-4.6,4.6-4.6c2.9,0,4.7,1.8,4.4,5.4H313.3z M318,118.4c-0.1-1.1-1-1.7-2.3-1.7
				c-1.2,0-2.1,0.6-2.4,1.7H318z"/>
			<path class="st1" d="M330.6,115.1l-3.7,8.8h-2.3l-3.7-8.8h2.3l1.2,2.9l1.3,3.7l1.3-3.6l1.2-2.9H330.6z"/>
			<path class="st1" d="M333.5,120.2c0.1,1.1,1.1,1.9,2.6,1.9c0.8,0,1.8-0.3,2.3-0.8l1.4,1.4c-0.9,1-2.4,1.4-3.7,1.4
				c-3,0-4.8-1.9-4.8-4.6c0-2.6,1.8-4.6,4.6-4.6c2.9,0,4.7,1.8,4.4,5.4H333.5z M338.2,118.4c-0.1-1.1-1-1.7-2.3-1.7
				c-1.2,0-2.1,0.6-2.4,1.7H338.2z"/>
			<path class="st1" d="M344,111.5v12.3h-2.1v-12.3H344z"/>
			<path class="st1" d="M354.6,119.5c0,2.5-1.7,4.5-4.5,4.5s-4.5-2-4.5-4.5c0-2.5,1.7-4.5,4.5-4.5
				C352.8,114.9,354.6,117,354.6,119.5z M347.7,119.5c0,1.3,0.8,2.6,2.4,2.6c1.6,0,2.4-1.2,2.4-2.6c0-1.3-0.9-2.6-2.4-2.6
				C348.5,116.9,347.7,118.1,347.7,119.5z"/>
			<path class="st1" d="M356.1,127.4v-12.3h2l0.1,1.2c0.7-1,1.8-1.4,2.8-1.4c2.7,0,4.5,2,4.5,4.6c0,2.5-1.6,4.6-4.4,4.6
				c-0.9,0-2.3-0.3-2.9-1.2v4.7H356.1z M363.4,119.5c0-1.4-0.9-2.5-2.5-2.5c-1.6,0-2.5,1.1-2.5,2.5c0,1.4,1,2.5,2.5,2.5
				C362.3,121.9,363.4,120.8,363.4,119.5z"/>
			<path class="st1" d="M372.9,123.8v-4.7c0-1.1-0.6-2.2-1.8-2.2c-1.2,0-1.9,1-1.9,2.2v4.7h-2.2v-8.7h2l0.2,1.1
				c0.5-0.9,1.5-1.2,2.3-1.2c1,0,2.1,0.4,2.6,1.6c0.8-1.2,1.8-1.6,2.9-1.6c2.5,0,3.7,1.5,3.7,4.1v4.7h-2.2v-4.7
				c0-1.1-0.5-2.1-1.6-2.1s-1.9,1-1.9,2.2v4.7H372.9z"/>
			<path class="st1" d="M384.7,120.2c0.1,1.1,1.1,1.9,2.6,1.9c0.8,0,1.8-0.3,2.3-0.8l1.4,1.4c-0.9,1-2.4,1.4-3.7,1.4
				c-3,0-4.8-1.9-4.8-4.6c0-2.6,1.8-4.6,4.6-4.6c2.9,0,4.7,1.8,4.4,5.4H384.7z M389.5,118.4c-0.1-1.1-1-1.7-2.3-1.7
				c-1.2,0-2.1,0.6-2.4,1.7H389.5z"/>
			<path class="st1" d="M399.6,123.8v-4.6c0-1.3-0.7-2.3-2.1-2.3c-1.3,0-2.2,1.1-2.2,2.4v4.4h-2.1v-8.7h1.9l0.1,1.2
				c0.9-0.9,1.8-1.3,2.9-1.3c2,0,3.7,1.5,3.7,4.3v4.6H399.6z"/>
			<path class="st1" d="M406.3,112.6v2.5h2.4v1.9h-2.4v3.8c0,0.8,0.5,1.2,1.1,1.2c0.3,0,0.7-0.1,1-0.3l0.6,1.8
				c-0.6,0.2-1.1,0.4-1.8,0.4c-1.9,0.1-3.1-1-3.1-3.2V117h-1.6v-1.9h1.6v-2.2L406.3,112.6z"/>
		</g>
	</g>
</g>
</svg>