<?xml version="1.0" encoding="utf-8"?>
<!-- Generator: Adobe Illustrator 27.2.0, SVG Export Plug-In . SVG Version: 6.00 Build 0)  -->
<svg version="1.1" id="Capa_1" xmlns="http://www.w3.org/2000/svg" xmlns:xlink="http://www.w3.org/1999/xlink" x="0px" y="0px"
	 viewBox="0 0 1025 1025" style="enable-background:new 0 0 1025 1025;" xml:space="preserve">
<style type="text/css">
	.st0{fill:#DE702D;}
	.st1{fill:#FFFFFF;}
	.st2{fill:#E4550D;}
	.st3{fill:none;}
	.st4{fill:#7AB439;}
</style>
<g>
	<rect x="-0.1" class="st0" width="1025.3" height="1025.2"/>
</g>
<g>
	<g>
		<polygon class="st0" points="644.4,476.3 644.5,476.3 644.5,476.3 684.5,476.3 684.5,436.3 644.4,436.3 644.4,476.3 		"/>
		<rect x="644.4" y="476.3" class="st1" width="0" height="0"/>
		<rect x="644.4" y="476.3" class="st2" width="0" height="40.1"/>
		<g>
			<rect x="644.5" y="476.3" class="st1" width="40.1" height="40.1"/>
			<g>
				<rect x="503" y="279.3" class="st3" width="33.2" height="28.7"/>
				<rect x="484.1" y="596.2" class="st1" width="40.1" height="40.1"/>
				<rect x="503" y="308" class="st4" width="33.2" height="28.7"/>
				<rect x="469.8" y="279.3" class="st4" width="33.2" height="28.7"/>
				<polygon class="st4" points="602.7,250.5 602.7,221.8 569.4,221.8 536.2,221.8 536.2,250.5 503,250.5 503,279.3 536.2,279.3 
					536.2,308 569.4,308 602.7,308 602.7,279.3 569.4,279.3 569.4,250.5 				"/>
				<line class="st2" x1="357.6" y1="476.3" x2="357.6" y2="476.3"/>
				<polyline class="st1" points="644.5,516.4 644.5,516.4 644.4,516.4 644.4,476.3 644.5,476.3 644.5,476.3 644.4,476.3 
					644.4,476.3 				"/>
				<rect x="484.1" y="636.7" class="st1" width="40.1" height="39.4"/>
				<rect x="484.1" y="596.6" class="st0" width="40.1" height="40.1"/>
				<rect x="484.1" y="635.9" class="st1" width="40.1" height="0.7"/>
				<g>
					<g>
						<polygon class="st1" points="317.5,476.3 357.6,476.3 357.6,476.3 357.6,436.3 317.5,436.3 						"/>
					</g>
				</g>
				<path class="st1" d="M629.3,645.4L629.3,645.4c-8.5,0-15.3,6.9-15.3,15.3c0,8.6,6.9,15.3,15.3,15.3c8.5,0,15.2-6.8,15.2-15.3
					C644.4,652.3,637.7,645.4,629.3,645.4z M629.2,673c-6.5,0-11.6-5.4-11.6-12.2c0-6.8,5.2-12.3,11.5-12.3h0.1
					c6.4,0,11.7,5.5,11.7,12.3C640.9,667.6,635.7,673,629.2,673z"/>
			</g>
		</g>
		<path class="st1" d="M632.5,661.2v-0.1c1.8-0.5,3.3-1.9,3.3-3.9c0-1.8-0.5-2.9-1.5-3.7c-1.2-0.9-2.9-1.4-5.8-1.4
			c-2.6,0-4.1,0.3-5.4,0.5v17h3.6v-7h1.6c1.8,0,2.9,0.7,3.2,2.6c0.3,2.3,0.6,3.8,1,4.4h3.7c-0.3-0.5-0.6-1.6-1-4.2
			C634.9,662.9,634,661.5,632.5,661.2z M628.3,659.8h-1.7v-4.9c0.5-0.1,1.1-0.1,2-0.1c2.4,0,3.5,1.1,3.5,2.5
			C632,659.1,630.4,659.8,628.3,659.8z"/>
		<g>
			<path class="st1" d="M189.8,788.7v-24.6c0-7.2-3.9-12.6-11.3-12.6c-7.2,0-12,6-12,13.2v24h-11.5v-47.1h10.4l0.8,6.4
				c4.8-4.7,9.5-7.1,15.4-7.1c11.1,0,19.9,8.3,19.9,23.1v24.7H189.8z"/>
			<path class="st1" d="M248.7,741.7h11.2v47h-11l-0.6-6.9c-2.7,5.5-10,8.2-15.3,8.3c-13.9,0.1-24.2-8.5-24.2-25
				c0-16.2,10.8-24.7,24.5-24.6c6.3,0,12.3,3,15,7.6L248.7,741.7z M220.5,765.1c0,9,6.2,14.3,13.9,14.3c18.3,0,18.3-28.5,0-28.5
				C226.7,750.9,220.5,756.2,220.5,765.1z"/>
			<path class="st1" d="M280.4,741.7l0.9,5.4c3.6-5.8,8.5-6.7,13.3-6.7c4.9,0,9.5,1.9,12.1,4.5l-5.2,10.1c-2.4-2-4.6-3.1-8.4-3.1
				c-6.1,0-11.7,3.2-11.7,11.9v24.8h-11.6v-47H280.4z"/>
			<path class="st1" d="M348.3,741.7h11.2v47h-11l-0.6-6.9c-2.7,5.5-10,8.2-15.3,8.3c-13.9,0.1-24.2-8.5-24.2-25
				c0-16.2,10.8-24.7,24.5-24.6c6.3,0,12.3,3,15,7.6L348.3,741.7z M320.1,765.1c0,9,6.2,14.3,13.9,14.3c18.3,0,18.3-28.5,0-28.5
				C326.3,750.9,320.1,756.2,320.1,765.1z"/>
			<path class="st1" d="M403.9,788.7v-24.6c0-7.2-3.9-12.6-11.3-12.6c-7.2,0-12,6-12,13.2v24H369v-47.1h10.4l0.8,6.4
				c4.8-4.7,9.5-7.1,15.4-7.1c11.1,0,19.9,8.3,19.9,23.1v24.7H403.9z"/>
			<path class="st1" d="M437,741.5v57.2c0,11.6-5.1,19.2-15.6,19.2c-3.4,0-7.1-1-10.4-3.1l4.2-9.1c2,1,3.9,1.4,5.6,1.3
				c3.8-0.2,4.7-3.1,4.7-8.3v-57.2H437z M424.4,728.3c0,9.1,13.7,9.1,13.7,0C438.1,719.3,424.4,719.3,424.4,728.3z"/>
			<path class="st1" d="M484.2,741.7h11.2v47h-11l-0.6-6.9c-2.7,5.5-10,8.2-15.3,8.3c-13.9,0.1-24.2-8.5-24.2-25
				c0-16.2,10.8-24.7,24.5-24.6c6.3,0,12.3,3,15,7.6L484.2,741.7z M456,765.1c0,9,6.2,14.3,13.9,14.3c18.3,0,18.3-28.5,0-28.5
				C462.2,750.9,456,756.2,456,765.1z"/>
			<path class="st1" d="M571.8,741.7l-28.7,66.6h-12.8l8.8-20.4l-18.8-46.2h13.5L541,762l4.5,13.3l4.9-13l8.6-20.6H571.8z"/>
			<path class="st1" d="M628.4,788.7v-25.2c0-6.2-3.2-11.8-9.6-11.8c-6.3,0-10,5.6-10,11.8v25.2h-11.6v-47.1h10.8l0.9,5.7
				c2.5-4.8,7.9-6.5,12.4-6.5c5.6,0,11.3,2.3,13.9,8.8c4.2-6.7,9.6-8.6,15.7-8.6c13.3,0,19.9,8.2,19.9,22.3v25.4h-11.6v-25.4
				c0-6.2-2.6-11.4-8.9-11.4c-6.3,0-10.2,5.4-10.2,11.6v25.2H628.4z"/>
			<path class="st1" d="M692.5,769.3c0.8,5.8,5.8,10,14,10c4.3,0,9.9-1.6,12.6-4.4l7.4,7.3c-5,5.1-13.1,7.6-20.2,7.6
				c-16.2,0-25.8-10-25.8-25.1c0-14.3,9.7-24.6,25-24.6c15.7,0,25.6,9.7,23.7,29.1H692.5z M718.1,759.7c-0.8-6.1-5.5-9.2-12.2-9.2
				c-6.3,0-11.4,3-13.2,9.2H718.1z"/>
			<path class="st1" d="M787,722.1v66.6h-10.9l-0.8-6.5c-3.6,5.6-9.4,7.5-15.2,7.5c-13.8,0-24.2-9.2-24.2-24.6
				c0-16.2,10.2-24.6,23.9-24.6c5,0,12.7,2.7,15.4,7.5v-26H787z M747.6,765.1c0,8.2,5.9,13.8,13.3,13.8c7.3,0,13.6-5.3,13.6-13.8
				c0-8.2-6.3-13.7-13.6-13.7C753.5,751.4,747.6,756.7,747.6,765.1z"/>
			<path class="st1" d="M809.8,728.4c0,9.1-13.7,9.1-13.7,0S809.8,719.4,809.8,728.4z M797.1,741.5v47.2h11.6v-47.2H797.1z"/>
			<path class="st1" d="M856.5,741.7h11.2v47h-11l-0.6-6.9c-2.7,5.5-10,8.2-15.3,8.3c-13.9,0.1-24.2-8.5-24.2-25
				c0-16.2,10.8-24.7,24.5-24.6c6.3,0,12.3,3,15,7.6L856.5,741.7z M828.3,765.1c0,9,6.2,14.3,13.9,14.3c18.3,0,18.3-28.5,0-28.5
				C834.5,750.9,828.3,756.2,828.3,765.1z"/>
		</g>
	</g>
	<path class="st1" d="M604.4,476.3L604.4,476.3l40.1,0v-24.5h0v-55.7h-40.1v-40.1h-40.1h-40.1h-46.3v-39.4h-40.1v39.4h-39.4v40.1
		h-0.7h-40.1v40.1h40.1v40.1v0l0,0v0h0h-40.1v40.1l-33.8,0v40.1h40.1v0v40.1H404v0v40.1H444h40.1v-0.7v-39.4h40.1v39.4v0.7h40.1
		h40.1v-40.1h40.1v-40.1l0-40.1l-40.1,0v0V476.3z M515,436.3h-37.1l0,0v-40.1H515V436.3z"/>
</g>
</svg>
