<?xml version="1.0" encoding="utf-8"?>
<!-- Generator: Adobe Illustrator 27.2.0, SVG Export Plug-In . SVG Version: 6.00 Build 0)  -->
<svg version="1.1" id="Capa_1" xmlns="http://www.w3.org/2000/svg" xmlns:xlink="http://www.w3.org/1999/xlink" x="0px" y="0px"
	 viewBox="0 0 383.7 425.7" style="enable-background:new 0 0 383.7 425.7;" xml:space="preserve">
<style type="text/css">
	.st0{fill:#FFFFFF;}
	.st1{fill:none;}
</style>
<g>
	<g>
		<g>
			<g>
				<g>
					<path class="st0" d="M34.3,328.8v-12.1c0-3.5-2-6.2-5.6-6.2c-3.5,0-5.9,2.9-5.9,6.5v11.7h-5.7v-23.1h5.1l0.3,3.1
						c2.3-2.3,4.6-3.5,7.6-3.5c5.5,0,9.8,4.1,9.8,11.3v12.1h-5.6V328.8z"/>
					<path class="st0" d="M63.2,305.7h5.5v23h-5.3l-0.2-3.4c-1.3,2.7-4.9,4.1-7.4,4.1c-6.9,0-11.8-4.2-11.8-12.2
						c0-7.9,5.2-12.1,12-12.1c3.1,0,6,1.4,7.3,3.7L63.2,305.7z M49.3,317.2c0,4.4,3,7,6.9,7c8.9,0,8.9-13.9,0-13.9
						C52.4,310.2,49.3,312.7,49.3,317.2z"/>
					<path class="st0" d="M78.7,305.7l0.5,2.7c1.7-2.9,4.2-3.3,6.5-3.3c2.4,0,4.6,0.9,5.9,2.2l-2.6,5c-1.2-0.9-2.2-1.5-4.1-1.5
						c-3,0-5.8,1.6-5.8,5.8v12.2h-5.7v-23h5.2V305.7z"/>
					<path class="st0" d="M112.1,305.7h5.5v23h-5.3l-0.2-3.4c-1.3,2.7-4.9,4.1-7.4,4.1c-6.9,0-11.8-4.2-11.8-12.2
						c0-7.9,5.2-12.1,12-12.1c3.1,0,6,1.4,7.3,3.7L112.1,305.7z M98.2,317.2c0,4.4,3,7,6.9,7c8.9,0,8.9-13.9,0-13.9
						C101.3,310.2,98.2,312.7,98.2,317.2z"/>
					<path class="st0" d="M139.2,328.8v-12.1c0-3.5-2-6.2-5.6-6.2c-3.5,0-5.9,2.9-5.9,6.5v11.7H122v-23.1h5.1l0.3,3.1
						c2.3-2.3,4.6-3.5,7.6-3.5c5.5,0,9.8,4.1,9.8,11.3v12.1h-5.6V328.8z"/>
					<path class="st0" d="M155.5,305.5v28c0,5.7-2.4,9.4-7.7,9.4c-1.6,0-3.5-0.5-5.1-1.5l2.1-4.4c0.9,0.5,1.9,0.7,2.8,0.7
						c1.9-0.1,2.3-1.5,2.3-4.1v-28h5.6V305.5z M149.3,299.2c0,4.4,6.7,4.4,6.7,0C156.1,294.7,149.3,294.7,149.3,299.2z"/>
					<path class="st0" d="M178.6,305.7h5.5v23h-5.3l-0.2-3.4c-1.3,2.7-4.9,4.1-7.4,4.1c-6.9,0-11.8-4.2-11.8-12.2
						c0-7.9,5.2-12.1,12-12.1c3.1,0,6,1.4,7.3,3.7L178.6,305.7z M164.8,317.2c0,4.4,3,7,6.9,7c8.9,0,8.9-13.9,0-13.9
						C167.8,310.2,164.8,312.7,164.8,317.2z"/>
					<path class="st0" d="M221.6,305.7l-14.1,32.6h-6.3l4.3-10l-9.2-22.7h6.6l3.5,10l2.2,6.5l2.4-6.4l4.2-10.1L221.6,305.7
						L221.6,305.7z"/>
					<path class="st0" d="M249.4,328.8v-12.3c0-3-1.6-5.8-4.8-5.8c-3.1,0-4.9,2.8-4.9,5.8v12.3H234v-23.1h5.2l0.5,2.8
						c1.2-2.3,3.8-3.1,6-3.1c2.8,0,5.5,1.2,6.9,4.3c2.1-3.3,4.8-4.2,7.7-4.2c6.5,0,9.8,4.1,9.8,10.9v12.4h-5.6v-12.4
						c0-3-1.3-5.6-4.3-5.6c-3.1,0-5,2.7-5,5.7v12.3H249.4z"/>
					<path class="st0" d="M280.7,319.3c0.3,2.9,2.9,4.9,6.9,4.9c2.1,0,4.9-0.8,6.2-2.2l3.6,3.6c-2.4,2.6-6.4,3.7-9.9,3.7
						c-7.9,0-12.7-4.9-12.7-12.3c0-7,4.8-12.1,12.2-12.1c7.7,0,12.5,4.8,11.6,14.3h-17.9V319.3z M293.3,314.5c-0.3-3-2.7-4.5-6-4.5
						c-3.1,0-5.6,1.5-6.5,4.5H293.3z"/>
					<path class="st0" d="M327.1,296v32.6h-5.3l-0.3-3.1c-1.7,2.8-4.6,3.7-7.4,3.7c-6.7,0-11.8-4.5-11.8-12.1
						c0-7.9,5-12.1,11.7-12.1c2.4,0,6.3,1.3,7.6,3.7V296L327.1,296L327.1,296z M307.8,317.2c0,4.1,2.9,6.7,6.5,6.7s6.7-2.7,6.7-6.7
						c0-4.1-3.1-6.7-6.7-6.7C310.7,310.4,307.8,313,307.8,317.2z"/>
					<path class="st0" d="M338.2,299.2c0,4.4-6.7,4.4-6.7,0C331.5,294.7,338.2,294.7,338.2,299.2z M332.1,305.5v23.1h5.7v-23.1
						H332.1z"/>
					<path class="st0" d="M361.1,305.7h5.5v23h-5.3l-0.2-3.4c-1.3,2.7-4.9,4.1-7.4,4.1c-6.9,0-11.8-4.2-11.8-12.2
						c0-7.9,5.2-12.1,12-12.1c3.1,0,6,1.4,7.3,3.7L361.1,305.7z M347.3,317.2c0,4.4,3,7,6.9,7c8.9,0,8.9-13.9,0-13.9
						C350.4,310.2,347.3,312.7,347.3,317.2z"/>
				</g>
				<g>
					<path class="st0" d="M57.6,368l-1.6-3.7H47l-1.6,3.7h-1.3l6.6-15H52l6.7,15H57.6z M55.4,363.3l-4.1-9.2l-4.1,9.2H55.4z"/>
					<path class="st0" d="M70,353.1v15h-1v-2.3c-0.9,1.6-2.7,2.6-4.4,2.6c-3,0-5.3-2-5.3-5.5s2.3-5.5,5.3-5.5c1.9,0,3.6,0.8,4.4,2.4
						v-6.7H70z M60.3,362.7c0,2.9,2,4.4,4.3,4.4c2.4,0,4.3-1.9,4.3-4.4c0-2.7-1.9-4.4-4.3-4.4C62.2,358.3,60.3,359.8,60.3,362.7z"/>
					<path class="st0" d="M72,357.5h1.2l3.8,9.4l3.8-9.4H82L77.6,368h-1.2L72,357.5z"/>
					<path class="st0" d="M83.3,362.7c0-3.1,2.4-5.5,5.3-5.5s5.7,1.9,5.2,5.9h-9.5c0.2,2.4,2.1,3.9,4.3,3.9c1.4,0,3-0.6,3.8-1.6
						l0.7,0.6c-1,1.4-2.9,2.1-4.5,2.1C85.6,368.2,83.3,366.1,83.3,362.7z M92.9,362.4c0-2.7-1.7-4.1-4.3-4.1c-2.2,0-4.1,1.5-4.3,4.1
						H92.9z"/>
					<path class="st0" d="M97.5,357.5v1.9c0.7-1.4,2.2-2,3.5-2c0.8,0,1.6,0.2,2.3,0.6l-0.5,0.8c-0.6-0.3-1.2-0.5-1.9-0.5
						c-2,0-3.5,1.6-3.5,3.6v6.2h-1v-10.6H97.5z"/>
					<path class="st0" d="M108.1,354.2v3.3h3.6v0.9h-3.6v6.5c0,1.4,0.3,2.4,2,2.4c0.5,0,1-0.1,1.6-0.5l0.3,0.8
						c-0.7,0.3-1.3,0.6-2,0.6c-2.2,0-3-1.3-3-3.4v-6.5h-2.2v-0.9h2.2v-3.1L108.1,354.2z"/>
					<path class="st0" d="M115.5,354c0,1.2-1.7,1.2-1.7,0S115.5,352.8,115.5,354z M114.2,357.4V368h1v-10.7H114.2z"/>
					<path class="st0" d="M125.4,359.3c-1-0.9-2.1-1.2-3.3-1.2c-1.6,0-3.3,0.6-3.3,2c0,1.4,1.9,1.7,3.3,2c1.9,0.3,4.5,0.7,4.4,3.1
						c-0.1,2.3-2.4,3-4.4,3c-1.9,0-3.7-0.7-4.6-2.1l0.8-0.7c0.9,1.3,2.4,1.9,3.8,1.9c1.3,0,3.3-0.3,3.3-2c0-1.5-1.7-1.9-3.5-2.1
						c-2.1-0.3-4.1-0.7-4.1-2.9c0-2.1,2.1-3,4.2-3c1.5,0,2.9,0.5,3.9,1.4L125.4,359.3z"/>
					<path class="st0" d="M130.3,354c0,1.2-1.7,1.2-1.7,0S130.3,352.8,130.3,354z M128.9,357.4V368h1v-10.7H128.9z"/>
					<path class="st0" d="M141.4,357l0.7,0.6l-1,1.2c0.7,0.8,1.3,1.9,1.3,3.6c0,1.9-1,3.7-2.9,4.5c1.9,0.7,2.9,2,2.9,3.8
						c0,2.9-2.2,4.2-5,4.2c-2.8,0-5-1.5-5-4.2h1c0,2.2,1.9,3.3,3.9,3.3s4.1-0.9,4.1-3.3c0-2.3-2.1-3.1-4.1-3.1c-3,0-5-2.3-5-5.1
						c0-3.3,2.2-5.2,5-5.2c1,0,2.2,0.3,3,0.9L141.4,357z M133.6,362.5c0,2.2,1.5,4.1,3.9,4.1c2.2,0,3.9-1.9,3.9-4.1
						c0-2.7-1.7-4.1-3.9-4.1C135.3,358.3,133.6,359.7,133.6,362.5z"/>
					<path class="st0" d="M145.6,357.5v1.9c0.8-1.5,2.3-2.1,3.8-2.1c2.8,0,4.8,1.7,4.8,4.6v6.2h-1v-6.2c0-2.4-1.5-3.7-3.8-3.7
						c-2.2,0-3.7,1.6-3.7,3.8v5.9h-1v-10.6h1V357.5z"/>
					<path class="st0" d="M173,357.5c0,3.6,0,7.1,0,10.6h-1v-2.2c-1,1.6-2.7,2.4-4.3,2.4c-3,0-5.3-2.2-5.3-5.5s2.4-5.5,5.3-5.5
						c1.7,0,3.5,0.8,4.3,2.4v-2.3H173z M163.3,362.7c0,2.7,2,4.4,4.3,4.4c5.9,0,5.9-8.8,0-8.8C165.3,358.3,163.3,360.1,163.3,362.7z
						"/>
					<path class="st0" d="M177,357.5v1.9c0.8-1.5,2.3-2.1,3.8-2.1c2.8,0,4.8,1.7,4.8,4.6v6.2h-1v-6.2c0-2.4-1.5-3.7-3.8-3.7
						c-2.2,0-3.7,1.6-3.7,3.8v5.9h-1v-10.6h1V357.5z"/>
					<path class="st0" d="M198.5,353.1v15h-1v-2.3c-0.9,1.6-2.7,2.6-4.4,2.6c-3,0-5.3-2-5.3-5.5s2.3-5.5,5.3-5.5
						c1.9,0,3.6,0.8,4.4,2.4v-6.7H198.5z M188.7,362.7c0,2.9,2,4.4,4.3,4.4c2.4,0,4.3-1.9,4.3-4.4c0-2.7-1.9-4.4-4.3-4.4
						C190.7,358.3,188.7,359.8,188.7,362.7z"/>
					<path class="st0" d="M220.2,360.4c0.1,3.8-2.3,7.7-7.7,7.7c-1.7,0-3.4,0-5.1,0v-15c1.7,0,3.4,0,5.1,0
						C217.7,353.1,220.1,356.7,220.2,360.4z M208.6,354.1v12.8h3.9c4.4,0,6.5-3.4,6.5-6.6c-0.1-3.1-2.1-6.3-6.5-6.3h-3.9V354.1z"/>
					<path class="st0" d="M222.4,362.7c0-3.1,2.4-5.5,5.3-5.5c3,0,5.7,1.9,5.2,5.9h-9.5c0.2,2.4,2.1,3.9,4.3,3.9
						c1.4,0,3-0.6,3.8-1.6l0.7,0.6c-1,1.4-2.9,2.1-4.5,2.1C224.9,368.2,222.4,366.1,222.4,362.7z M232.2,362.4
						c0-2.7-1.7-4.1-4.3-4.1c-2.2,0-4.1,1.5-4.3,4.1H232.2z"/>
					<path class="st0" d="M234.6,357.5h1.2l3.8,9.4l3.8-9.4h1.2l-4.4,10.6H239L234.6,357.5z"/>
					<path class="st0" d="M245.8,362.7c0-3.1,2.4-5.5,5.3-5.5c3,0,5.7,1.9,5.2,5.9h-9.5c0.2,2.4,2.1,3.9,4.3,3.9
						c1.4,0,3-0.6,3.8-1.6l0.7,0.6c-1,1.4-2.9,2.1-4.5,2.1C248.2,368.2,245.8,366.1,245.8,362.7z M255.4,362.4
						c0-2.7-1.7-4.1-4.3-4.1c-2.2,0-4.1,1.5-4.3,4.1H255.4z"/>
					<path class="st0" d="M260.2,353.1v15h-1v-15H260.2z"/>
					<path class="st0" d="M262.6,362.8c0-3.4,2.4-5.6,5.3-5.6c2.9,0,5.3,2.1,5.3,5.6c0,3.4-2.4,5.5-5.3,5.5
						C265,368.3,262.6,366.2,262.6,362.8z M272.4,362.8c0-2.8-2-4.5-4.4-4.5c-2.4,0-4.4,1.7-4.4,4.5s2,4.4,4.4,4.4
						C270.4,367.2,272.4,365.5,272.4,362.8z"/>
					<path class="st0" d="M275.8,372.5v-15h1v2.6c0.8-1.6,2.6-2.7,4.6-2.7c2.9,0.1,5.1,2.1,5.1,5.5c0,3.6-2.4,5.5-5.3,5.5
						c-1.9,0-3.5-0.9-4.4-2.7v6.9L275.8,372.5L275.8,372.5z M285.6,362.7c0-3-2-4.4-4.3-4.4c-2.4,0-4.3,1.9-4.3,4.4
						c0,2.6,1.9,4.4,4.3,4.4C283.6,367.2,285.6,365.7,285.6,362.7z"/>
					<path class="st0" d="M304.9,368v-6.4c0-2.1-1.4-3.5-3.4-3.5c-2,0-3.4,1.5-3.4,3.6v6.3H297v-6.3c0-2.1-1.4-3.5-3.4-3.5
						c-2,0-3.4,1.5-3.4,3.5v6.3h-1v-10.6h1v1.7c0.7-1.4,2.1-2,3.5-2c1.6,0,3.3,0.7,3.9,2.7c0.7-1.7,2.3-2.7,3.9-2.7
						c2.6,0,4.4,1.9,4.4,4.4v6.4L304.9,368L304.9,368z"/>
					<path class="st0" d="M308.4,362.7c0-3.1,2.4-5.5,5.3-5.5c3,0,5.7,1.9,5.2,5.9h-9.5c0.2,2.4,2.1,3.9,4.3,3.9
						c1.4,0,3-0.6,3.8-1.6l0.7,0.6c-1,1.4-2.9,2.1-4.5,2.1C310.7,368.2,308.4,366.1,308.4,362.7z M318,362.4c0-2.7-1.7-4.1-4.3-4.1
						c-2.2,0-4.1,1.5-4.3,4.1H318z"/>
					<path class="st0" d="M322.7,357.5v1.9c0.8-1.5,2.3-2.1,3.8-2.1c2.8,0,4.8,1.7,4.8,4.6v6.2h-1v-6.2c0-2.4-1.5-3.7-3.8-3.7
						c-2.2,0-3.7,1.6-3.7,3.8v5.9h-1v-10.6h1V357.5z"/>
					<path class="st0" d="M336,354.2v3.3h3.6v0.9H336v6.5c0,1.4,0.3,2.4,2,2.4c0.5,0,1-0.1,1.6-0.5l0.3,0.8c-0.7,0.3-1.3,0.6-2,0.6
						c-2.2,0-3-1.3-3-3.4v-6.5h-2.2v-0.9h2.2v-3.1L336,354.2z"/>
				</g>
				<g>
					<g>
						<polygon class="st0" points="262.8,175.6 262.8,175.6 262.8,175.6 						"/>
						<rect x="262.8" y="175.6" class="st0" width="0" height="19.6"/>
						<g>
							<rect x="262.8" y="175.6" class="st0" width="19.6" height="19.6"/>
							<g>
								<g>
									<rect x="193.5" y="78.9" class="st0" width="16.3" height="14.1"/>
									<g>
										<rect x="193.5" y="78.9" class="st0" width="16.3" height="14.1"/>
										<rect x="193.5" y="93.1" class="st0" width="16.3" height="14.1"/>
										<rect x="177.2" y="78.9" class="st0" width="16.3" height="14.1"/>
										<polygon class="st0" points="242.4,64.9 242.4,50.8 226,50.8 209.8,50.8 209.8,64.9 193.5,64.9 193.5,78.9 209.8,78.9 
											209.8,93.1 226,93.1 242.4,93.1 242.4,78.9 226,78.9 226,64.9 										"/>
									</g>
								</g>
								<line class="st1" x1="122.2" y1="175.6" x2="122.2" y2="175.6"/>
								<polyline class="st0" points="262.8,195.2 262.8,195.2 262.8,195.2 262.8,175.6 262.8,175.6 262.8,175.6 262.8,175.6 
									262.8,175.6 								"/>
								<rect x="184.2" y="254.2" class="st0" width="19.6" height="19.3"/>
								<g>
									<g>
										<polygon class="st0" points="102.5,175.6 122.2,175.6 122.2,175.6 122.2,155.9 102.5,155.9 										"/>
									</g>
								</g>
								<path class="st0" d="M255.4,258.5L255.4,258.5c-4.2,0-7.6,3.4-7.6,7.4c0,4.2,3.4,7.6,7.4,7.6c4.2,0,7.4-3.4,7.4-7.6
									C262.8,261.9,259.6,258.5,255.4,258.5z M255.4,272c-3.1,0-5.7-2.7-5.7-6c0-3.4,2.6-6,5.7-6l0,0c3.1,0,5.7,2.7,5.7,6
									C261.1,269.4,258.5,272,255.4,272z"/>
							</g>
						</g>
						<g>
							<path class="st0" d="M258.3,268.3c-0.1-1.3-0.6-1.9-1.3-2v-0.1c0.9-0.2,1.6-0.9,1.6-2c0-0.8-0.2-1.4-0.7-1.7
								c-0.6-0.5-1.4-0.7-2.9-0.7c-1.3,0-2,0.1-2.7,0.2v8.4h1.7v-3.5h0.8c0.9,0,1.4,0.3,1.5,1.3c0.1,1.2,0.3,1.9,0.5,2.2h1.9
								C258.7,270.1,258.4,269.5,258.3,268.3z M254.9,265.6h-0.8v-2.4c0.2,0,0.6,0,0.9,0c1.2,0,1.7,0.6,1.7,1.3
								C256.8,265.2,256,265.6,254.9,265.6z"/>
						</g>
					</g>
					<path class="st0" d="M243.2,175.6L243.2,175.6h19.6v-12l0,0v-27.3h-19.6v-19.6h-19.6h-19.6h-22.8V97.4h-19.6v19.3h-19.3v19.6
						h-0.3h-19.6v19.6h19.6v19.6l0,0l0,0l0,0l0,0h-19.6v19.6h-16.6v19.6h19.6l0,0v19.7h19.6l0,0v19.6h19.6h19.6v-0.3v-19.3h19.6
						v19.3v0.3h19.6h19.6v-19.6h19.6v-19.6v-19.6h-19.6l0,0v-19.7H243.2z M199.3,155.9h-18.2l0,0v-19.6h18.2V155.9z"/>
				</g>
			</g>
		</g>
	</g>
</g>
</svg>
