<?xml version="1.0" encoding="UTF-8"?>
<svg id="Capa_1" xmlns="http://www.w3.org/2000/svg" version="1.1" viewBox="0 0 251.7 273.4">
  <!-- Generator: Adobe Illustrator 29.4.0, SVG Export Plug-In . SVG Version: 2.1.0 Build 152)  -->
  <defs>
    <style>
      .st0 {
        fill: none;
      }

      .st1 {
        fill: #e4550d;
      }

      .st2 {
        fill: #fff;
      }

      .st3 {
        fill: #de702d;
      }

      .st4 {
        fill: #7ab439;
      }
    </style>
  </defs>
  <g>
    <g>
      <path class="st0" d="M184.3,217.6h-.8v2.2h.8c1.1,0,1.6-.3,1.6-1.1s-.2-1.1-1.6-1.1h0Z"/>
      <path class="st2" d="M191.9,133.4h0Z"/>
      <rect class="st1" x="191.9" y="133.4" height="19"/>
      <g>
        <rect class="st3" x="191.9" y="133.4" width="19" height="19"/>
        <g>
          <path class="st0" d="M184.8,214.6h0c-3,0-5.4,2.7-5.4,5.7s2.4,5.7,5.4,5.7,5.4-2.4,5.4-5.7c.1-3.2-2.4-5.7-5.4-5.7ZM186.2,224.4c-.3-.3-.3-1.1-.5-2.2,0-.8-.5-1.1-1.6-1.1h-.8v3.3h-1.6v-7.9c.5,0,1.4-.3,2.4-.3s2.2.3,2.7.5c.5.3.8.8.8,1.6s-.5,1.6-1.6,1.9h0c.8,0,1.1.8,1.4,1.9.3,1.4.3,1.6.5,1.9h-1.6v.4h0Z"/>
          <rect class="st0" x="125.4" y="40.6" width="15.7" height="13.6"/>
          <rect class="st4" x="125.4" y="54.2" width="15.7" height="13.6"/>
          <rect class="st4" x="109.6" y="40.6" width="15.7" height="13.6"/>
          <polygon class="st4" points="172.1 27 172.1 13.5 156.6 13.5 140.9 13.5 140.9 27 125.4 27 125.4 40.6 140.9 40.6 140.9 54.2 156.6 54.2 172.1 54.2 172.1 40.6 156.6 40.6 156.6 27 172.1 27"/>
          <line class="st0" x1="56.7" y1="133.4" x2="56.7" y2="133.4"/>
          <polyline class="st2" points="191.9 152.2 191.9 152.2 191.9 152.2 191.9 133.4 191.9 133.4 191.9 133.4 191.9 133.4 191.9 133.4"/>
          <rect class="st3" x="116.4" y="208.9" width="19" height="18.5"/>
          <polygon class="st3" points="37.7 133.4 56.7 133.4 56.7 133.4 56.7 114.4 37.7 114.4 37.7 133.4"/>
          <path class="st1" d="M184.8,213h0c-4.1,0-7.3,3.3-7.3,7.3s3.3,7.3,7.3,7.3,7.1-3.3,7.1-7.3-3.3-7.3-7.1-7.3ZM184.8,226c-3,0-5.4-2.4-5.4-5.7s2.4-5.7,5.4-5.7h0c3,0,5.4,2.7,5.4,5.7.1,3.3-2.4,5.7-5.4,5.7Z"/>
        </g>
      </g>
      <path class="st1" d="M186.2,220.6h0c.8-.3,1.6-1.1,1.6-1.9s-.3-1.4-.8-1.6c-.5-.5-1.4-.5-2.7-.5s-1.9,0-2.4.3v7.9h1.6v-3.3h.8c.8,0,1.4.3,1.6,1.1.3,1.1.3,1.9.5,2.2h1.6c0-.3-.3-.8-.5-1.9,0-1.5-.5-2.3-1.3-2.3h0ZM184.3,219.8h-.8v-2.2h.8c1.1,0,1.6.5,1.6,1.1s-.5,1.1-1.6,1.1h0Z"/>
    </g>
    <path class="st3" d="M172.9,133.4h19v-11.4h0v-26.3h-19v-19h-59.7v-18.5h-19v18.5h-18.5v19h-19.3v19h19v19h-19v19h-16v19h19v19h19v19h38v-18.8h19v18.8h38v-19h19v-38h-19v-19.3h-.5ZM130.8,114.4h-17.4v-19h17.4v19Z"/>
  </g>
  <g>
    <path class="st2" d="M8.9,235.2l2.6,18.7,9.1-18.7h7.6l-13.5,25.9H5.7l-4.4-25.9h7.6Z"/>
    <path class="st2" d="M36.7,240.8l-.8,4.2h8.3l-1,5.5h-8.3l-.8,4.7h9.3l-1,5.7h-16.6l4.6-25.9h16.6l-1,5.7h-9.3Z"/>
    <path class="st2" d="M68.1,236.9c1.5,1.1,2.1,2.8,2.1,4.9s0,1.1,0,1.6c-.3,1.8-1,3.3-2.3,4.7-1.1,1.3-2.8,2.3-4.7,2.8l4.1,10.1h-8l-3.4-9.6h-.8l-1.6,9.6h-7.2l4.6-25.9h11.4c2.8,0,4.7.7,6.2,1.8h-.3ZM55.8,246.5h3.6c2,0,3.1-1,3.4-2.8v-.7c0-.7-.2-1.1-.7-1.5s-1.1-.5-2-.5h-3.6l-1,5.4h.2Z"/>
    <path class="st2" d="M81.9,235.2l-4.6,25.9h-7.2l4.6-25.9h7.2Z"/>
    <path class="st2" d="M103.6,235.2l-1,5.7h-10.4l-.8,4.6h7.6l-1,5.5h-7.6l-1.8,10.1h-7.2l4.6-25.9s17.6,0,17.6,0Z"/>
    <path class="st2" d="M113.8,235.2l-4.6,25.9h-7.2l4.6-25.9h7.2Z"/>
    <path class="st2" d="M117.6,241.2c1.5-2,3.3-3.6,5.4-4.7s4.6-1.6,7-1.6,3.9.3,5.5,1.1,2.8,2,3.7,3.4,1.3,3.1,1.5,5h-7.8c-.3-1-.8-1.6-1.5-2.3-.7-.5-1.6-.8-2.8-.8-1.6,0-3.1.7-4.2,1.8s-2,2.8-2.3,4.7v1.6c0,1.5.3,2.8,1.1,3.6s2,1.3,3.3,1.3,2.1-.3,2.9-.8c1-.5,1.6-1.3,2.3-2.3h7.8c-1.1,2.9-3.1,5.4-5.5,7-2.4,1.8-5.4,2.6-8.6,2.6s-4.2-.5-5.9-1.3-2.9-2.1-3.7-3.6c-.8-1.6-1.3-3.4-1.3-5.4s0-2,.3-2.8c.5-2.6,1.3-4.9,2.8-6.8v.2Z"/>
    <path class="st2" d="M158.4,256.8h-9.1l-2.1,4.2h-7.5l14-25.9h8.3l4.9,25.9h-7.6l-.7-4.2h-.2ZM157.4,251.3l-1.3-8.5-4.2,8.5h5.5Z"/>
    <path class="st2" d="M192.8,261h-7.2l-7-14.5-2.6,14.5h-7.2l4.6-25.9h7.2l7,14.6,2.6-14.6h7.2l-4.6,25.9Z"/>
    <path class="st2" d="M217.9,236.5c1.8.8,3.1,2.1,3.9,3.6,1,1.5,1.3,3.4,1.3,5.4s0,1.8-.3,2.6c-.5,2.4-1.5,4.7-2.8,6.7-1.5,2-3.3,3.4-5.5,4.6s-4.7,1.6-7.5,1.6h-10.2l4.6-25.9h10.2c2.4,0,4.4.5,6.2,1.3l.2.2ZM213,252.9c1.5-1.1,2.3-2.8,2.6-4.9v-1.6c0-1.6-.5-2.9-1.5-3.7s-2.4-1.3-4.2-1.3h-2.4l-2.4,13.3h2.4c2.1,0,3.9-.7,5.2-1.8h.3Z"/>
    <path class="st2" d="M230.6,259.9c-1.6-1-2.9-2.1-3.9-3.7s-1.3-3.6-1.3-5.7c0-3.1.7-5.9,2-8.1,1.3-2.4,3.1-4.2,5.4-5.5,2.3-1.3,4.9-2,8-2s4.2.5,5.9,1.3,2.9,2.1,3.9,3.7c1,1.6,1.3,3.6,1.3,5.7,0,3.1-.7,5.7-2,8.1s-3.1,4.2-5.4,5.5-5,2-8,2-4.1-.5-5.7-1.3h-.2ZM241.3,253.5c1.1-.8,2-1.8,2.4-3.1s.8-2.6.8-4.1-.5-2.8-1.3-3.6-2.1-1.3-3.6-1.3-2.8.3-3.7,1.1c-1.1.8-2,1.8-2.6,2.9-.7,1.3-.8,2.6-.8,4.1s.5,2.8,1.3,3.6,2.1,1.3,3.7,1.3,2.8-.3,3.7-1.1v.2Z"/>
  </g>
</svg>