<?xml version="1.0" encoding="UTF-8"?>
<svg id="Capa_1" xmlns="http://www.w3.org/2000/svg" version="1.1" viewBox="0 0 251.7 273.4">
  <!-- Generator: Adobe Illustrator 29.4.0, SVG Export Plug-In . SVG Version: 2.1.0 Build 152)  -->
  <defs>
    <style>
      .st0 {
        fill: none;
      }

      .st1 {
        fill: #e4550d;
      }

      .st2, .st3 {
        fill: #fff;
      }

      .st3 {
        fill-opacity: 0;
      }

      .st4 {
        fill: #de702d;
      }

      .st5 {
        fill: #7ab439;
      }
    </style>
  </defs>
  <g>
    <rect class="st3" x="0" y=".1" width="251.8" height="273.1"/>
    <g>
      <path class="st0" d="M184.3,217.6h-.8v2.2h.8c1.1,0,1.6-.3,1.6-1.1s-.2-1.1-1.6-1.1Z"/>
      <path class="st2" d="M191.9,133.4h0Z"/>
      <rect class="st1" x="191.9" y="133.4" height="19"/>
      <g>
        <rect class="st4" x="191.9" y="133.4" width="19" height="19"/>
        <g>
          <path class="st0" d="M184.8,214.6h0c-3,0-5.4,2.7-5.4,5.7s2.4,5.7,5.4,5.7,5.4-2.4,5.4-5.7c.1-3.2-2.4-5.7-5.4-5.7ZM186.2,224.4c-.3-.3-.3-1.1-.5-2.2,0-.8-.5-1.1-1.6-1.1h-.8v3.3h-1.6v-7.9c.5,0,1.4-.3,2.4-.3s2.2.3,2.7.5c.5.3.8.8.8,1.6s-.5,1.6-1.6,1.9h0c.8,0,1.1.8,1.4,1.9.3,1.4.3,1.6.5,1.9h-1.6v.4h0Z"/>
          <rect class="st0" x="125.4" y="40.6" width="15.7" height="13.6"/>
          <rect class="st5" x="125.4" y="54.2" width="15.7" height="13.6"/>
          <rect class="st5" x="109.6" y="40.6" width="15.7" height="13.6"/>
          <polygon class="st5" points="172.1 27 172.1 13.5 156.6 13.5 140.9 13.5 140.9 27 125.4 27 125.4 40.6 140.9 40.6 140.9 54.2 156.6 54.2 172.1 54.2 172.1 40.6 156.6 40.6 156.6 27 172.1 27"/>
          <line class="st0" x1="56.7" y1="133.4" x2="56.7" y2="133.4"/>
          <polyline class="st2" points="191.9 152.2 191.9 152.2 191.9 152.2 191.9 133.4 191.9 133.4 191.9 133.4 191.9 133.4 191.9 133.4"/>
          <rect class="st4" x="116.4" y="208.9" width="19" height="18.5"/>
          <polygon class="st4" points="37.7 133.4 56.7 133.4 56.7 133.4 56.7 114.4 37.7 114.4 37.7 133.4"/>
          <path class="st1" d="M184.8,213h0c-4.1,0-7.3,3.3-7.3,7.3s3.3,7.3,7.3,7.3,7.1-3.3,7.1-7.3-3.3-7.3-7.1-7.3ZM184.8,226c-3,0-5.4-2.4-5.4-5.7s2.4-5.7,5.4-5.7h0c3,0,5.4,2.7,5.4,5.7.1,3.3-2.4,5.7-5.4,5.7Z"/>
        </g>
      </g>
      <path class="st1" d="M186.2,220.6h0c.8-.3,1.6-1.1,1.6-1.9s-.3-1.4-.8-1.6c-.5-.5-1.4-.5-2.7-.5s-1.9,0-2.4.3v7.9h1.6v-3.3h.8c.8,0,1.4.3,1.6,1.1.3,1.1.3,1.9.5,2.2h1.6c0-.3-.3-.8-.5-1.9,0-1.5-.5-2.3-1.3-2.3ZM184.3,219.8h-.8v-2.2h.8c1.1,0,1.6.5,1.6,1.1s-.5,1.1-1.6,1.1Z"/>
    </g>
    <path class="st4" d="M172.9,133.4h19v-11.4h0v-26.3h-19v-19h-59.7v-18.5h-19v18.5h-18.5v19h-19.3v19h19v19h-19v19h-16v19h19v19h19v19h38v-18.8h19v18.8h38v-19h19v-38h-19v-19.3h-.5ZM130.8,114.4h-17.4v-19h17.4v19Z"/>
  </g>
  <g>
    <path class="st2" d="M61.2,243.8c.9-1.2,2-2.2,3.3-2.9,1.3-.7,2.8-1,4.3-1s2.4.2,3.4.7c1,.5,1.7,1.2,2.3,2.1s.8,1.9.9,3.1h-4.8c-.2-.6-.5-1-.9-1.4-.5-.3-1-.5-1.7-.5-1,0-1.9.4-2.6,1.1s-1.2,1.7-1.4,2.9c0,.3,0,.7,0,1,0,.9.2,1.7.7,2.2.5.5,1.2.8,2,.8s1.3-.2,1.8-.5c.6-.3,1-.8,1.4-1.4h4.8c-.7,1.8-1.9,3.3-3.4,4.3-1.5,1.1-3.3,1.6-5.3,1.6s-2.6-.3-3.6-.8c-1-.5-1.8-1.3-2.3-2.2-.5-1-.8-2.1-.8-3.3s0-1.2.2-1.7c.3-1.6.8-3,1.7-4.2Z"/>
    <path class="st2" d="M86.3,253.4h-5.6l-1.3,2.6h-4.6l8.6-15.9h5.1l3,15.9h-4.7l-.4-2.6ZM85.7,250l-.8-5.2-2.6,5.2h3.4Z"/>
    <path class="st2" d="M106.3,241.2c.9.7,1.3,1.7,1.3,3s0,.7,0,1c-.2,1.1-.6,2-1.4,2.9-.7.8-1.7,1.4-2.9,1.7l2.5,6.2h-4.9l-2.1-5.9h-.5l-1,5.9h-4.4l2.8-15.9h7c1.7,0,2.9.4,3.8,1.1ZM98.8,247.1h2.2c1.2,0,1.9-.6,2.1-1.7,0-.2,0-.3,0-.4,0-.4-.1-.7-.4-.9-.3-.2-.7-.3-1.2-.3h-2.2l-.6,3.3Z"/>
    <path class="st2" d="M110.3,243.8c.9-1.2,2-2.2,3.3-2.9,1.3-.7,2.8-1,4.4-1s3.6.5,4.7,1.4c1.1,1,1.7,2.3,1.7,3.9h-4.8c-.2-.4-.5-.7-.9-1-.4-.2-.9-.3-1.5-.3-1.1,0-2,.4-2.8,1.1-.8.7-1.3,1.7-1.5,2.9,0,.5-.1.8-.1,1.1,0,1,.3,1.8.9,2.3s1.4.8,2.5.8,2.8-.7,3.7-2.1h-4.4l.6-3.2h8.3l-.8,4.3c-.8,1.3-1.9,2.5-3.4,3.4-1.5,1-3.1,1.4-5,1.4s-2.6-.3-3.7-.8-1.8-1.3-2.3-2.2c-.5-1-.8-2.1-.8-3.3s0-1.2.2-1.7c.3-1.6.8-3,1.7-4.2Z"/>
    <path class="st2" d="M135.2,253.4h-5.6l-1.3,2.6h-4.6l8.6-15.9h5.1l3,15.9h-4.7l-.4-2.6ZM134.7,250l-.8-5.2-2.6,5.2h3.4Z"/>
    <path class="st2" d="M156.5,256h-4.4l-4.3-8.9-1.6,8.9h-4.4l2.8-15.9h4.4l4.3,9,1.6-9h4.4l-2.8,15.9Z"/>
    <path class="st2" d="M171.9,240.9c1.1.5,1.9,1.3,2.4,2.2.6.9.8,2.1.8,3.3s0,1.1-.2,1.6c-.3,1.5-.9,2.9-1.7,4.1-.9,1.2-2,2.1-3.4,2.8-1.4.7-2.9,1-4.6,1h-6.3l2.8-15.9h6.3c1.5,0,2.7.3,3.8.8ZM168.9,251c.9-.7,1.4-1.7,1.6-3,0-.3,0-.6,0-1,0-1-.3-1.8-.9-2.3s-1.5-.8-2.6-.8h-1.5l-1.5,8.2h1.5c1.3,0,2.4-.4,3.2-1.1Z"/>
    <path class="st2" d="M179.7,255.3c-1-.6-1.8-1.3-2.4-2.3s-.8-2.2-.8-3.5c0-1.9.4-3.6,1.2-5,.8-1.5,1.9-2.6,3.3-3.4,1.4-.8,3-1.2,4.9-1.2s2.6.3,3.6.8c1,.5,1.8,1.3,2.4,2.3.6,1,.8,2.2.8,3.5,0,1.9-.4,3.5-1.2,5-.8,1.5-1.9,2.6-3.3,3.4s-3.1,1.2-4.9,1.2-2.5-.3-3.5-.8ZM186.2,251.4c.7-.5,1.2-1.1,1.5-1.9s.5-1.6.5-2.5-.3-1.7-.8-2.2-1.3-.8-2.2-.8-1.7.2-2.3.7c-.7.5-1.2,1.1-1.6,1.8-.4.8-.5,1.6-.5,2.5s.3,1.7.8,2.2c.5.5,1.3.8,2.3.8s1.7-.2,2.3-.7Z"/>
  </g>
</svg>