<?xml version="1.0" encoding="UTF-8"?>
<svg id="Capa_1" xmlns="http://www.w3.org/2000/svg" xmlns:xlink="http://www.w3.org/1999/xlink" version="1.1" viewBox="0 0 57.8 57.8">
  <!-- Generator: Adobe Illustrator 29.5.1, SVG Export Plug-In . SVG Version: 2.1.0 Build 141)  -->
  <defs>
    <style>
      .st0, .st1 {
        fill: none;
      }

      .st1 {
        stroke: #000;
        stroke-miterlimit: 8.4;
        stroke-width: 1px;
      }

      .st2 {
        clip-path: url(#clippath);
      }
    </style>
    <clipPath id="clippath">
      <circle class="st0" cx="28.9" cy="28.9" r="26.3"/>
    </clipPath>
  </defs>
  <g class="st2">
    <g id="StbUb8.tif">
      <g>
        <path d="M30.3,5.6c1.4.3,2.8.6,4.2,1,2.2.7,4.1,1.9,5.6,3.6.3.3.7.6,1.1.9,2,1.4,3,3.4,3.2,5.8.2,2.8,0,5.7.2,8.4,0,.5,0,.9.2,1.4.6,2.1-1,4.2-3.3,4.4h-.6c0,.3,0,.7-.2,1-.7,3.3-2.5,5.9-5.2,7.8-.4.3-.6.5-.6,1q0,1.9,1.8,2.5c2.6.9,5.2,1.8,7.8,2.7,2.5.9,4,2.6,4.5,5.2,0,.4.2.8.2,1.2,0,.6-.2,1-.7,1.1s-1-.2-1.1-.8-.2-1.2-.4-1.8c-.3-1.4-1.2-2.5-2.6-3-2-.7-3.9-1.4-5.9-2.1h-.3v9.5c0,.9.2,1.7.3,2.6,0,.6,0,1.2,0,1.7v1.7h2.7v-3.3c0-.5.4-.8.9-.8s.8.3.9.7v8.8h4.8c1.4,0,1.9-.7,1.7-2.1-.2-1.7-.6-3.3-.9-4.9-.2-.9-.4-1.7-.5-2.6,0-.7,0-1.2.7-1.3.6,0,1,.2,1.1.9.5,2.5,1,4.9,1.5,7.4.3,1.8-.3,3.3-1.6,4-.4.2-.9.3-1.4.5h-22c-.2-.2-.5-.4-.6-.7-.2-.6.3-1.2,1.1-1.2h8.6c.7,0,1-.2,1-1v-7c0-.9-.2-1.1-1.1-1.1h-13.6c-.9,0-1.1.2-1.1,1.1v6.7c0,1.1.2,1.3,1.3,1.3s1,0,1.2.6,0,.9-.5,1.3h-13.8c-.6-.3-1.3-.5-1.9-.9-.9-.6-1-2-.8-3.4.9-4.6,1.9-9.1,2.8-13.6.5-2.3,2-3.7,4.2-4.5,3.1-1.1,6.1-2.1,9.1-3.2.4,0,.5-.4.6-.8,0-1.1-.2-1.9-1.3-2.6-2.8-1.9-4.4-4.7-5-8.1,0,0,0-.2,0-.3q0,0,0-.2c-1.2,0-2.3-.4-3.1-1.3-.8-1-1.1-2-.7-3.2,0-.3,0-.6.2-1,0-2,0-4.1,0-6.1.2-2.6,1.2-4.9,2.6-7.1.3-.5.8-.6,1.3-.4.5.3.6.8.3,1.4-.5,1-1.2,2.1-1.6,3.1-.6,1.5-.8,3.1-.9,4.7v3.1c.5,0,1,0,1.5-.2,0,0,.3-.2.3-.4.7-2.4,2.7-3.7,5.3-3.4,4,.5,7.7-.2,10.9-2.5.4-.3.7-.5,1-.8.9-.7,2.1-.5,2.7.4.8,1.2,1.7,2,3.1,2.2.8,0,1.2.6,1.2,1.5v2.9c.6,0,1.1.2,1.7.3-.2-2.9.3-5.7-.4-8.5-.4-1.5-1.2-2.7-2.6-3.5-.3-.2-.5-.4-.7-.7-3-3.2-6.8-4.5-11.1-4.2-2.8,0-5.4,1.1-7.7,2.9-.6.5-1.3.4-1.5-.2-.3-.5,0-.9.4-1.3,2.3-1.8,5-2.8,7.9-3.2.2,0,.4,0,.6,0,1.3,0,2.2,0,3.1,0ZM35.2,18.6c-.2,0-.3.2-.4.3-2.7,2.2-5.7,3.3-9,3.5-1.3,0-2.7,0-4,0-1.9-.2-3.2.9-3.3,2.8,0,1.1,0,2.2,0,3.3,0,2.1.2,4.2,1.1,6.2,1.8,3.7,6.1,6.2,10.5,5.6,4.6-.6,8.4-4.2,8.8-8.7.3-3.2.2-6.4.2-9.5s-.2-.4-.3-.4c-1.6-.3-2.7-1.3-3.6-2.8ZM19.6,46.1h-.3c-1.9.7-3.9,1.3-5.8,2-1.5.6-2.4,1.6-2.7,3.2-.7,3.2-1.3,6.5-2,9.6-.3,1.4-.6,2.8-.8,4.3-.2,1.1.3,1.8,1.4,1.8,1.7,0,3.5,0,5.2,0v-8.7c0-.6.4-.9.9-.9s.9.4.9,1v3.2h2.7v-1.7c0-.6,0-1.2,0-1.7,0-.8.2-1.5.3-2.3v-3.7c0-2,0-4.1,0-6.1ZM24.8,48.1v8.1h.9v-1.3c0-1.3.9-2,2.2-2.1h2.4c1,0,1.8.8,1.9,1.8,0,.5,0,1,0,1.5h.9v-8.1c-2.8,1.3-5.6,1.3-8.3.2ZM24.7,41.3v4.4c0,.2.2.4.3.4,2.6,1.2,5.2,1.2,7.8,0,0,0,.3-.2.3-.4v-4.5c-2.8,1.1-5.5,1.1-8.3.2ZM35.1,44.9v8h1.5v-7.2c0,0,0-.3-.3-.4-.4-.2-.8-.3-1.2-.4ZM22.8,52.8v-8c-.5.2-1,.3-1.4.5v7.5h1.4ZM19.2,67.1v-3.5h-2.7v3.5h2.7ZM38.7,67.1h2.7v-3.5h-2.7v3.5ZM16.6,26c-.8,0-1.4.2-1.8.8-.3.5-.3,1,0,1.5.4.6,1,.9,1.8.9v-3.2ZM41,29.3c.8,0,1.4-.3,1.8-.9.3-.5.3-1,0-1.5-.4-.6-1-.8-1.7-.8v3.2ZM30.3,56.1c.3-1.4.2-1.5-1.1-1.5h-.4q-1.3,0-1.2,1.3t0,.2h2.6ZM22.8,54.7h-1.4v1.4h1.4v-1.4ZM36.5,54.7h-1.4v1.5h1.4v-1.5Z"/>
        <path d="M32.5,62.6c0,2-1.6,3.6-3.6,3.5-1.9,0-3.5-1.6-3.5-3.5s1.6-3.6,3.6-3.5c1.9,0,3.5,1.6,3.5,3.5ZM28.9,61c-.9,0-1.7.8-1.7,1.7s.8,1.6,1.7,1.6,1.7-.8,1.7-1.7-.7-1.6-1.7-1.6Z"/>
        <path d="M34.5,59c.7,0,1.2.2,1.2.8s-.2.8-.4.9c-.5,0-1.2,0-1.7,0-.2,0-.4-.6-.4-.8,0-.6.5-.9,1.3-.9Z"/>
      </g>
    </g>
  </g>
  <circle class="st1" cx="28.9" cy="28.9" r="28.2"/>
</svg>