<?xml version="1.0" encoding="UTF-8"?>
<svg id="Capa_1" xmlns="http://www.w3.org/2000/svg" version="1.1" viewBox="0 0 195.3 195.3">
  <!-- Generator: Adobe Illustrator 29.5.1, SVG Export Plug-In . SVG Version: 2.1.0 Build 141)  -->
  <defs>
    <style>
      .st0 {
        fill: #0f9d58;
      }

      .st1 {
        fill: #fff;
      }
    </style>
  </defs>
  <path class="st0" d="M194.9,22.5c0-12.3-10.2-22.5-22.5-22.5H22.5C10.2,0,0,10.2,0,22.5v150.4C0,185.1,10.2,195.3,22.5,195.3h150.4c12.3,0,22.5-10.2,22.5-22.5V22.5h-.4Z"/>
  <g>
    <path class="st1" d="M93.3,37.9c47.6-3.3,79.9,47.5,56.6,89.3-21.2,38-75.4,41-100.8,5.7-27.4-38-2.3-91.7,44.2-95ZM92.1,42.2c-37.4,3.2-60.4,43.4-45.7,77.7,16.9,39.4,71.1,45.5,96.3,10.6,28.3-39.2-2.7-92.4-50.6-88.4Z"/>
    <path class="st0" d="M97.5,44.9c42.9-.1,68,48.7,42.9,83.7-20.8,29-64.3,29.1-85.3.2-25.4-34.8-.4-83.8,42.5-83.9ZM128.7,66.3c-2,.3-3.7,1.8-5.2,3l-38.6,38.5c-.7.1-8.7-8.3-9.9-9.5-4.3-4.3-7.9-10.1-15.1-5.7s-5.2,9.7-1.3,14.3,15.5,16.5,20.3,20.2,6.3,3,10,1.5c16.9-15.7,33.3-32.5,49.3-49.1,3.7-7.1-1.7-14.5-9.6-13.1Z"/>
    <path class="st1" d="M130.6,69.1c4.9,0,7.8,5.7,4.6,9.6l-47.5,47.1c-2.4,1.1-4.4.8-6.6-.7l-21.4-21.8c-3.5-6.2,4.4-12.1,9.4-7l14.6,15.4h1.7c0,.1,40.8-40.5,40.8-40.5,1.3-1.1,2.8-2,4.5-2Z"/>
  </g>
</svg>